<?xml version="1.0" standalone="no"?>
<!DOCTYPE svg PUBLIC "-//W3C//DTD SVG 20010904//EN"
 "http://www.w3.org/TR/2001/REC-SVG-20010904/DTD/svg10.dtd">
<svg version="1.0" xmlns="http://www.w3.org/2000/svg"
 width="1025.000000pt" height="1025.000000pt" viewBox="0 0 1025.000000 1025.000000"
 preserveAspectRatio="xMidYMid meet">

<g transform="translate(0.000000,1025.000000) scale(0.100000,-0.100000)"
fill="#000000" stroke="none">
<path d="M4990 10079 c-366 -8 -540 -20 -718 -51 -67 -12 -125 -18 -129 -15
-3 4 -7 17 -8 29 -1 12 -7 24 -15 26 -10 4 -11 -6 -5 -43 3 -26 12 -56 18 -66
8 -13 8 -21 -2 -33 -17 -20 -30 -20 -53 0 -16 16 -18 16 -24 0 -9 -24 -20 -20
-34 14 -7 17 -14 30 -15 30 -1 0 -21 -6 -43 -14 -22 -8 -86 -24 -141 -36 -142
-30 -327 -83 -466 -135 -113 -42 -180 -53 -201 -32 -16 16 -24 5 -24 -33 0
-47 -24 -90 -51 -90 -12 0 -16 -5 -13 -15 7 -18 -6 -19 -40 -3 -22 9 -29 8
-45 -6 -18 -17 -21 -16 -55 18 -38 38 -56 45 -56 21 0 -8 5 -15 12 -15 9 0 9
-3 1 -11 -18 -18 -33 -1 -33 37 0 40 -22 54 -48 31 -19 -17 -63 -17 -84 0 -7
6 -23 14 -36 18 -14 4 -33 27 -48 58 -21 41 -28 47 -35 34 -7 -11 0 -36 21
-82 31 -68 37 -90 21 -80 -5 3 -12 1 -16 -5 -3 -5 -13 -10 -22 -10 -8 0 -27
-9 -41 -21 -31 -24 -43 -8 -17 21 29 32 12 46 -19 16 -16 -14 -37 -26 -46 -26
-19 0 -21 -37 -5 -74 19 -44 -39 -71 -61 -28 -11 23 -11 23 -32 -12 -12 -20
-29 -36 -39 -36 -10 0 -29 -9 -43 -20 -32 -25 -55 -26 -45 -2 26 65 32 240 10
302 -8 23 -15 65 -15 93 l0 51 -66 -64 c-70 -70 -125 -163 -145 -247 -6 -26
-17 -131 -23 -233 -11 -154 -11 -188 1 -201 7 -8 13 -21 13 -27 0 -6 11 -32
25 -58 14 -25 22 -50 19 -55 -9 -16 -70 -10 -86 9 -14 15 -26 56 -31 105 -1 9
-2 17 -3 17 0 0 -15 -7 -33 -16 -26 -13 -30 -19 -20 -30 9 -11 8 -15 -5 -20
-11 -4 -56 19 -132 70 -108 72 -204 116 -284 130 l-35 7 31 -18 c106 -62 218
-181 253 -270 29 -72 -27 -246 -96 -300 -20 -15 -94 -85 -164 -155 -71 -71
-135 -128 -142 -128 -8 0 -28 18 -46 41 -20 25 -39 38 -47 35 -8 -3 -22 3 -31
14 -11 13 -24 18 -39 14 -13 -3 -28 1 -38 11 -9 10 -18 16 -20 14 -11 -13 -36
-71 -36 -84 0 -8 -4 -15 -8 -15 -4 0 -21 -20 -36 -45 -16 -25 -35 -50 -42 -56
-19 -16 -10 -106 13 -131 10 -11 17 -30 15 -43 -2 -15 8 -36 28 -59 20 -22 29
-40 24 -48 -5 -7 -44 -58 -89 -113 -83 -103 -191 -270 -309 -478 -263 -461
-450 -1097 -505 -1717 -35 -394 -15 -941 50 -1325 44 -263 136 -682 180 -820
26 -80 24 -97 -11 -123 -16 -13 -30 -28 -30 -34 0 -15 82 -127 119 -162 24
-23 31 -39 32 -70 1 -25 4 -32 6 -18 3 13 10 21 16 19 7 -3 11 -10 9 -17 -1
-7 3 -18 9 -26 8 -10 8 -14 1 -14 -6 0 -9 -7 -6 -15 4 -11 2 -13 -9 -9 -29 11
-28 -16 2 -60 22 -32 31 -56 31 -85 0 -64 -14 -88 -53 -93 -21 -2 -33 0 -31 7
2 5 -11 19 -29 30 -19 12 -32 29 -32 41 -1 17 -33 64 -36 52 0 -2 -2 -16 -4
-33 -1 -16 -6 -43 -9 -58 -5 -23 -1 -34 19 -54 14 -14 25 -33 25 -42 0 -39
114 -121 175 -127 78 -8 79 -8 89 -43 5 -18 19 -37 30 -43 12 -5 29 -27 39
-49 11 -22 66 -104 123 -182 57 -78 104 -146 104 -151 0 -4 -20 -5 -44 -2 -39
6 -45 5 -51 -14 -4 -12 -1 -27 5 -35 7 -8 10 -21 7 -29 -3 -8 -1 -17 6 -20 7
-3 -3 -18 -25 -39 -21 -19 -38 -39 -38 -45 0 -6 -9 -17 -20 -25 -41 -28 -52
-103 -20 -132 14 -12 20 -31 20 -59 0 -36 4 -44 38 -66 20 -13 50 -35 65 -47
16 -13 42 -23 58 -23 l29 0 -28 -50 c-32 -58 -27 -74 33 -105 21 -11 46 -32
54 -47 18 -30 60 -58 79 -51 7 3 24 -5 37 -17 20 -19 31 -21 62 -15 21 3 53
15 71 25 31 19 32 19 32 1 0 -22 25 -45 39 -37 5 4 13 2 16 -4 5 -8 11 -8 20
0 8 7 19 9 25 5 6 -4 19 -1 28 7 9 8 29 19 44 25 22 10 29 9 44 -8 19 -21 43
-27 25 -5 -16 20 3 64 34 78 17 7 39 39 66 95 23 45 47 88 54 93 10 8 23 -2
54 -37 22 -26 41 -51 41 -55 0 -4 -12 -15 -26 -25 -15 -10 -38 -30 -53 -44
-14 -15 -39 -34 -56 -42 -16 -8 -46 -33 -66 -54 -26 -27 -54 -44 -95 -57 -74
-22 -106 -42 -103 -64 3 -32 -1 -39 -26 -50 -14 -6 -25 -18 -25 -27 0 -8 -5
-15 -11 -15 -22 0 -42 -33 -44 -73 -2 -31 6 -60 31 -109 19 -37 34 -81 34 -98
0 -18 5 -30 13 -30 8 0 33 -14 55 -30 42 -30 92 -39 121 -21 17 11 93 -22 140
-60 25 -21 38 -25 47 -18 9 7 19 7 32 0 10 -5 27 -10 38 -10 10 1 48 -10 84
-23 127 -46 231 -18 282 76 18 33 22 56 22 119 -1 75 7 92 32 67 6 -6 22 -6
46 2 42 13 64 3 268 -118 142 -83 424 -210 752 -338 38 -14 98 -38 135 -52 84
-33 229 -75 354 -102 274 -61 340 -73 514 -96 105 -14 269 -30 365 -36 96 -6
254 -15 350 -20 165 -10 519 1 560 17 8 3 78 12 155 19 165 16 205 23 390 62
286 62 338 72 371 72 19 0 57 11 86 25 28 14 58 25 66 25 8 0 31 8 51 19 20
10 56 26 81 36 25 10 79 32 120 50 41 17 127 49 190 71 63 21 160 59 215 85
55 26 111 50 125 54 14 4 36 14 50 23 14 9 59 32 100 52 41 19 105 52 142 73
36 20 71 37 76 37 6 0 12 4 14 8 2 5 29 24 60 43 80 48 225 148 239 165 6 8
17 14 25 14 7 0 17 6 21 12 13 20 160 118 177 118 8 0 25 13 37 30 37 50 153
78 254 62 101 -16 165 -2 236 55 34 26 85 72 114 101 29 28 61 52 70 52 10 0
32 8 49 19 17 10 63 27 103 37 l72 18 -26 24 c-21 19 -41 25 -106 30 l-80 7
-13 38 c-13 38 -13 38 19 52 68 28 91 91 55 147 -27 41 -29 73 -8 96 11 12 20
28 20 35 0 8 7 32 16 52 15 36 14 39 -5 66 -29 39 -27 50 17 100 107 122 319
460 421 671 90 186 100 209 154 358 153 422 235 787 292 1300 22 197 30 661
16 880 -38 557 -196 1212 -383 1585 -22 44 -48 89 -59 101 -18 19 -18 23 -4
64 8 23 15 44 15 45 0 2 -10 5 -23 9 -29 7 -47 44 -47 96 0 37 -2 39 -35 46
-32 6 -40 15 -82 92 -74 135 -206 337 -408 624 -138 195 -509 609 -631 702
-22 17 -90 71 -150 119 -131 106 -448 321 -594 402 -116 65 -470 230 -595 277
-606 227 -1042 326 -1575 358 -91 5 -167 9 -170 8 -3 -1 -151 -5 -330 -9z m64
-69 c54 -9 96 -31 96 -51 0 -5 -14 -16 -30 -24 -23 -12 -28 -20 -22 -32 11
-18 -7 -63 -25 -63 -7 0 -13 -7 -13 -15 0 -11 -12 -15 -46 -15 -155 0 -309
-59 -351 -134 -9 -17 -14 -17 -48 -5 -62 23 -75 91 -24 133 18 15 27 31 23 38
-5 8 -2 9 9 5 10 -4 14 -2 11 7 -3 7 7 18 21 26 14 7 25 17 25 21 0 4 12 10
27 14 21 5 24 8 12 16 -13 9 2 7 66 -8 18 -4 18 -2 -3 14 l-23 19 24 11 c13 6
45 15 71 18 29 5 46 12 46 21 0 17 66 19 154 4z m-964 -120 c0 -5 -5 -10 -11
-10 -5 0 -7 5 -4 10 3 6 8 10 11 10 2 0 4 -4 4 -10z m1654 -26 c29 -4 46 -12
46 -20 0 -8 7 -14 16 -14 14 0 14 -3 4 -15 -11 -13 -9 -20 10 -40 20 -21 21
-25 7 -25 -9 0 -17 4 -17 9 0 5 -8 11 -19 14 -16 4 -18 0 -13 -39 3 -33 1 -45
-11 -50 -19 -7 -73 20 -81 41 -5 15 -9 15 -36 -1 -29 -18 -31 -17 -57 2 -28
21 -41 68 -26 90 8 10 100 52 119 53 6 1 32 -2 58 -5z m-1294 -40 c0 -11 -75
-114 -86 -118 -7 -3 -11 6 -11 20 0 13 3 21 8 19 4 -3 10 -1 14 5 3 5 1 10 -6
10 -8 0 -8 4 1 15 7 8 16 12 21 9 5 -3 8 -1 7 5 -2 5 6 17 17 25 21 16 35 20
35 10z m1478 -37 c7 -15 10 -36 7 -47 -7 -23 -40 -27 -49 -5 -3 8 -2 15 3 15
14 0 19 36 9 55 -8 13 -7 16 3 13 8 -2 20 -17 27 -31z m-2050 -40 c9 -7 9 -13
1 -23 -6 -8 -9 -20 -6 -27 3 -9 -11 -22 -39 -35 -57 -28 -72 -28 -80 2 -7 31
18 69 59 89 30 15 38 14 65 -6z m2364 -18 c15 -8 31 -8 62 0 35 10 50 9 98 -8
47 -16 79 -19 168 -17 92 2 107 1 92 -10 -11 -9 -13 -13 -4 -14 24 0 1 -20
-24 -20 -33 0 -30 -16 7 -35 16 -9 28 -22 26 -28 -2 -7 2 -20 10 -29 19 -21 9
-38 -22 -38 -13 0 -25 -6 -27 -12 -3 -9 -12 -8 -31 5 -47 30 -71 19 -46 -22 7
-10 9 -30 5 -45 -6 -26 -7 -26 -32 -9 -21 13 -30 14 -45 5 -27 -17 -31 -16
-69 18 -18 17 -41 30 -50 30 -9 0 -31 13 -49 28 -26 22 -34 36 -33 60 0 18 -2
32 -4 32 -3 0 -39 -11 -80 -25 -41 -14 -79 -25 -84 -25 -9 0 7 53 33 112 6 15
25 35 42 43 36 18 32 17 57 4z m-1942 -9 c0 -5 -5 -10 -11 -10 -5 0 -7 5 -4
10 3 6 8 10 11 10 2 0 4 -4 4 -10z m1318 -22 c21 -21 13 -28 -30 -27 -40 1
-41 2 -13 9 l30 7 -25 11 -25 11 26 0 c14 1 30 -4 37 -11z m-1341 -9 c6 -6 9
-18 6 -25 -3 -8 0 -14 6 -14 14 0 14 -20 -1 -53 -14 -29 -31 -31 -37 -2 -2 13
1 16 13 12 12 -5 16 0 16 15 0 16 -3 19 -11 11 -18 -18 -36 6 -31 39 4 29 20
36 39 17z m-711 -130 c24 -47 19 -60 -18 -47 -18 6 -49 22 -68 34 -19 12 -62
31 -95 41 l-60 18 75 5 c91 6 145 -11 166 -51z m1874 -10 c31 -9 40 -18 49
-49 6 -20 11 -46 11 -57 0 -27 25 -47 51 -40 17 4 19 3 10 -6 -18 -18 -13 -26
25 -42 29 -12 34 -18 29 -35 -5 -14 -2 -20 10 -20 12 0 15 6 10 20 -7 21 -3
23 33 14 12 -4 22 -12 22 -18 0 -7 20 -17 44 -24 32 -8 53 -22 72 -47 19 -25
33 -35 46 -32 13 4 18 0 18 -13 0 -11 5 -22 10 -25 20 -12 9 -23 -37 -39 -52
-18 -87 -21 -79 -7 8 12 -18 21 -34 11 -10 -6 -8 -9 6 -13 18 -4 18 -5 -1 -6
-13 -1 -28 -17 -44 -46 -18 -34 -43 -58 -105 -98 -44 -30 -87 -61 -95 -70 -11
-15 -10 -18 13 -27 22 -8 25 -13 17 -28 -16 -31 -36 -42 -92 -52 -60 -12 -114
-29 -144 -48 -20 -12 -20 -12 -1 -27 11 -8 35 -15 53 -15 26 0 34 -5 39 -24 7
-29 -27 -101 -56 -116 -26 -14 -189 -10 -220 5 -47 23 -80 27 -80 9 0 -9 -15
-31 -34 -50 -30 -30 -40 -34 -84 -34 -29 0 -56 6 -64 13 -7 8 -24 19 -36 26
-59 31 -82 132 -39 172 38 36 70 55 74 43 2 -7 21 -10 45 -8 23 2 47 -1 54 -7
7 -6 18 -8 25 -4 17 11 30 -17 16 -35 -11 -13 -10 -13 6 -1 16 13 20 13 28 0
6 -10 9 -10 9 -1 0 7 11 17 24 24 14 6 32 28 40 49 9 22 23 39 31 39 8 0 15 6
15 14 0 8 10 27 23 41 22 26 22 26 67 10 54 -20 133 -31 110 -15 -8 5 -23 10
-32 10 -10 0 -29 17 -43 38 -25 38 -33 84 -24 137 3 17 4 24 2 18 -8 -23 -20
-14 -27 18 -6 30 -26 32 -26 3 0 -8 -10 -34 -22 -57 l-23 -42 -3 43 c-3 47
-19 57 -24 15 -3 -24 -5 -23 -28 23 -24 47 -25 48 -28 21 -2 -16 2 -36 10 -45
31 -40 36 -57 22 -77 -19 -25 -18 -41 1 -25 20 17 27 9 31 -35 2 -29 -1 -35
-17 -35 -10 0 -19 -6 -19 -14 0 -9 -19 -15 -57 -20 -32 -3 -67 -7 -77 -9 -27
-3 -31 20 -5 28 22 7 21 8 -12 26 -39 21 -53 24 -44 9 3 -5 -1 -10 -9 -10 -9
0 -16 6 -16 14 0 7 -7 19 -15 26 -13 10 -15 9 -15 -9 0 -12 -8 -24 -17 -27
-33 -11 -63 -27 -63 -35 0 -5 8 -16 18 -26 35 -34 33 -48 -16 -89 -25 -21 -43
-31 -39 -22 5 14 2 15 -26 6 -18 -6 -38 -15 -44 -21 -9 -6 -28 0 -60 18 -63
37 -83 54 -83 75 0 10 -7 23 -16 31 -8 7 -22 26 -30 42 -14 27 -14 29 5 34 27
7 26 17 -3 56 -48 65 -41 147 12 147 17 0 38 10 52 25 13 14 31 25 40 25 28 0
30 11 7 50 -19 33 -20 41 -8 63 9 18 10 30 3 44 -19 35 12 78 88 117 37 20 75
33 84 30 8 -3 40 4 71 15 31 12 73 21 94 21 38 0 39 -1 46 -40 4 -23 14 -55
22 -72 14 -26 17 -28 25 -14 5 10 47 55 93 102 94 96 115 103 146 49 17 -28
24 -33 38 -25 10 5 27 6 39 3 17 -4 22 -1 22 13 0 24 29 54 53 54 11 0 37 -5
57 -11z m-2856 -125 c9 -3 16 -13 16 -21 0 -10 -6 -13 -16 -9 -9 3 -20 6 -25
6 -5 0 -9 7 -9 15 0 16 9 19 34 9z m1246 -49 c14 -16 10 -18 -14 -9 -9 3 -16
10 -16 15 0 14 16 11 30 -6z m-1576 -65 c32 -48 33 -64 5 -57 -18 5 -20 2 -15
-19 5 -17 2 -24 -8 -24 -35 0 -42 11 -40 55 2 37 18 85 28 85 2 0 15 -18 30
-40z m1432 -55 c-16 -9 -32 -13 -35 -10 -8 9 21 25 44 25 16 0 14 -3 -9 -15z
m2174 5 c13 -8 13 -10 -2 -10 -9 0 -20 5 -23 10 -8 13 5 13 25 0z m-2083 -46
c17 -13 41 -38 53 -55 l22 -30 -21 -23 c-30 -32 -26 -39 20 -31 l41 7 -7 -41
c-6 -35 -4 -40 9 -35 14 5 16 -3 16 -52 0 -33 3 -69 6 -82 9 -32 30 -21 26 14
-3 22 -1 26 8 17 17 -16 54 18 81 74 11 24 24 43 28 43 5 0 24 11 44 24 l36
25 28 -26 c19 -18 27 -34 24 -51 -2 -21 0 -24 16 -17 27 12 90 18 118 11 32
-8 57 -56 49 -95 -4 -16 -22 -49 -42 -71 -31 -37 -36 -40 -45 -25 -8 14 -12
10 -29 -26 -19 -44 -107 -134 -140 -145 -32 -10 -71 4 -64 23 4 9 -2 25 -14
38 -17 18 -19 26 -10 50 18 48 1 41 -54 -21 -47 -52 -53 -56 -49 -31 5 23 3
26 -13 20 -19 -6 -19 -6 -1 15 15 16 18 29 12 61 -7 41 -19 53 -28 29 -8 -21
-27 40 -28 90 l-2 47 -9 -50 c-5 -27 -12 -84 -14 -125 -2 -41 -7 -85 -9 -97
-6 -24 -25 -32 -25 -10 0 7 -7 22 -15 33 -14 18 -16 18 -29 2 -16 -22 -26 -23
-26 -3 0 8 -14 24 -30 37 -17 12 -44 43 -60 68 -16 25 -40 56 -52 67 -24 23
-27 66 -12 155 l6 36 -46 -23 c-58 -29 -335 -119 -343 -111 -3 3 8 18 24 33
32 30 68 122 59 150 -7 23 40 48 60 32 7 -5 37 -12 67 -13 30 -2 60 -6 65 -10
18 -11 60 12 65 36 l4 23 8 -22 c8 -25 25 -31 25 -9 0 7 7 19 16 27 13 11 14
9 9 -17 -6 -26 -4 -24 24 16 32 46 86 84 105 73 6 -3 25 -17 43 -29z m-1445
-9 c3 -14 2 -25 -2 -25 -10 0 -30 47 -23 54 10 9 20 -3 25 -29z m-137 -54 c-6
-21 -25 -29 -25 -11 0 6 5 10 11 10 6 0 8 9 4 23 -6 17 -5 19 5 11 7 -7 9 -21
5 -33z m115 -8 c0 -16 8 -25 25 -29 22 -5 25 -12 25 -50 0 -49 -11 -59 -64
-57 -55 2 -71 6 -84 20 -7 7 -20 13 -28 13 -11 0 -13 6 -9 20 6 18 3 20 -19
14 -20 -5 -26 -2 -26 10 0 9 8 16 21 16 11 0 41 20 66 43 41 39 49 42 69 33
15 -7 24 -20 24 -33z m1173 30 c-7 -2 -19 -2 -25 0 -7 3 -2 5 12 5 14 0 19 -2
13 -5z m2580 -56 c-3 -5 0 -13 6 -17 18 -10 -24 -35 -105 -62 l-69 -23 109 -7
c60 -4 132 -14 160 -22 28 -7 66 -16 84 -20 67 -12 140 -37 145 -50 4 -10 -19
-18 -91 -32 -53 -10 -101 -19 -107 -20 -5 -2 -39 -8 -74 -14 -35 -6 -73 -16
-83 -21 -11 -6 -26 -8 -34 -5 -8 3 -14 1 -14 -4 0 -6 -7 -10 -15 -10 -8 0 -24
-6 -35 -12 -16 -10 -23 -10 -37 5 -16 15 -16 17 -1 17 9 0 20 5 24 12 5 8 -7
10 -44 5 -54 -6 -68 4 -31 23 42 23 10 19 -68 -9 l-81 -29 -5 32 c-3 17 -7 40
-9 50 -2 14 8 25 35 40 45 24 33 35 -32 32 l-44 -2 34 29 c19 16 58 40 87 54
96 45 313 89 295 60z m1054 -97 c25 -28 31 -15 8 16 -27 36 -15 38 21 3 77
-73 114 -204 82 -286 -9 -21 -19 -66 -23 -100 -9 -79 -22 -82 -21 -5 0 35 -6
68 -17 87 -12 22 -16 25 -17 12 0 -14 -5 -17 -20 -12 -16 5 -20 2 -20 -14 0
-27 -12 -27 -28 0 -10 16 -16 18 -27 9 -11 -9 -15 -1 -20 47 -3 32 -13 99 -21
148 -9 50 -15 98 -15 107 0 10 -4 20 -10 23 -5 4 -9 11 -9 17 0 12 38 -27 56
-58 9 -15 11 -9 7 31 l-6 50 29 -25 c16 -14 39 -36 51 -50z m-4166 30 l24 -19
-98 -1 c-67 0 -96 3 -92 11 21 33 130 39 166 9z m4023 -112 c40 -133 33 -221
-26 -292 -36 -44 -52 -46 -46 -5 4 26 2 30 -14 26 -11 -3 -18 0 -18 10 0 9 -6
12 -17 9 -29 -9 -46 39 -27 76 17 34 12 94 -11 125 -18 23 -19 39 -2 24 8 -6
16 -8 20 -5 8 8 24 -26 32 -69 4 -20 12 -37 18 -37 7 0 8 41 4 124 -6 113 -5
125 11 128 28 7 48 -24 76 -114z m-3874 85 c8 -4 24 -7 35 -7 17 -1 20 -8 20
-51 l0 -50 -47 -12 c-26 -6 -77 -14 -113 -16 -61 -5 -65 -4 -60 14 4 12 1 19
-7 20 -7 0 11 9 41 20 30 10 56 20 57 22 2 2 0 17 -5 34 -5 18 -7 33 -5 36 6
6 65 -1 84 -10z m4223 -10 c26 -51 28 -79 3 -33 -14 25 -25 48 -26 53 0 15 10
6 23 -20z m-5107 -35 c0 -7 3 -13 9 -13 5 0 9 6 7 13 -4 15 10 15 43 0 25 -11
25 -11 6 -30 -24 -22 -44 -23 -61 -3 -18 22 -32 18 -26 -7 l6 -23 -11 22 c-6
12 -9 29 -6 37 7 19 35 22 33 4z m5624 -39 c0 -5 -4 -9 -10 -9 -5 0 -10 7 -10
16 0 8 5 12 10 9 6 -3 10 -10 10 -16z m-5050 7 c0 -2 -7 -9 -15 -16 -12 -10
-15 -10 -15 4 0 9 7 16 15 16 8 0 15 -2 15 -4z m-323 -20 c-18 -14 -18 -14 0
-20 15 -4 15 -5 -2 -3 -30 3 -33 37 -3 37 22 -1 22 -1 5 -14z m273 -28 c-1 -8
-6 -6 -15 6 -20 26 -19 42 0 22 8 -8 15 -21 15 -28z m-185 18 c19 -14 19 -15
-7 -27 -22 -9 -30 -9 -43 1 -12 10 -13 16 -4 26 15 18 30 18 54 0z m135 -5 c0
-11 -7 -26 -15 -35 -21 -20 -19 -24 13 -28 25 -3 24 -5 -20 -25 -55 -25 -62
-35 -18 -27 16 4 37 3 47 -1 18 -8 -82 -33 -157 -39 -19 -2 -42 -5 -50 -7 -10
-3 -14 2 -12 14 2 12 -4 21 -17 24 -24 6 -28 39 -8 65 12 16 28 16 95 2 19 -4
23 -9 18 -28 -4 -16 -1 -26 9 -30 18 -7 31 16 39 69 7 42 27 65 58 65 11 0 18
-7 18 -19z m704 -16 c34 -18 60 -20 50 -4 -9 15 38 4 81 -18 17 -9 40 -21 52
-27 11 -6 26 -19 33 -30 11 -17 10 -18 -12 -12 -54 15 -78 18 -78 8 0 -14 56
-36 75 -29 8 4 21 -3 30 -16 9 -13 11 -23 5 -25 -5 -2 -10 -17 -10 -34 0 -32
-5 -33 -54 -12 -17 6 -18 4 -12 -20 4 -18 3 -25 -3 -21 -6 3 -20 1 -32 -5 -16
-9 -23 -8 -32 4 -7 9 -29 24 -49 35 -33 16 -36 16 -29 2 5 -9 19 -25 30 -35
12 -11 21 -28 21 -39 0 -20 63 -87 82 -87 19 0 108 -72 102 -82 -4 -5 -51 -8
-117 -7 -120 4 -143 11 -239 73 -52 33 -58 40 -58 71 0 28 -9 43 -55 86 -30
28 -55 58 -55 65 0 8 -6 11 -16 7 -12 -4 -15 -2 -12 8 7 21 53 23 82 3 14 -9
26 -12 26 -7 0 5 -16 17 -35 26 -19 9 -35 24 -35 32 0 23 49 93 68 98 43 11
169 6 196 -8z m4969 -69 c8 -19 -20 -43 -34 -29 -12 12 -1 43 16 43 7 0 15 -6
18 -14z m-785 -39 c7 -15 17 -27 21 -27 25 0 34 -115 13 -157 -23 -47 -93 -74
-126 -50 -17 12 -17 19 -6 73 7 32 14 68 16 79 1 11 10 42 19 68 20 54 41 59
63 14z m-5318 15 c0 -5 -6 -16 -13 -26 -13 -17 -14 -18 -20 -2 -4 10 -3 15 3
11 6 -3 10 1 10 9 0 9 5 16 10 16 6 0 10 -4 10 -8z m2733 -34 c-10 -11 -19
-15 -21 -8 -5 15 18 41 30 34 5 -3 1 -15 -9 -26z m-2795 -29 c-20 -13 -28 -11
-22 5 3 8 12 12 21 9 12 -5 12 -7 1 -14z m72 -3 c0 -10 14 -16 43 -18 34 -2
42 -7 42 -23 0 -19 -12 -24 -104 -39 -57 -10 -73 24 -30 65 34 32 49 36 49 15z
m2202 -33 c35 -33 35 -43 2 -76 -31 -31 -24 -56 10 -34 19 13 23 12 40 -10 18
-24 18 -26 -1 -51 -11 -15 -22 -35 -26 -45 -3 -9 -18 -22 -32 -29 -28 -12 -33
-28 -10 -28 24 0 55 -38 55 -67 0 -34 -53 -80 -108 -95 -20 -5 -44 -16 -52
-23 -24 -21 -73 -27 -121 -15 -24 7 -53 13 -64 14 -11 2 -37 10 -57 19 -21 9
-39 17 -42 17 -2 0 -7 -19 -11 -41 -10 -55 -77 -141 -133 -170 -39 -19 -45
-20 -59 -7 -11 12 -13 25 -6 59 7 35 17 49 53 76 59 43 88 72 103 103 9 17 20
24 35 23 18 -2 21 1 16 25 -5 24 -1 29 38 45 24 9 49 17 56 17 6 0 12 9 12 19
0 11 4 22 8 25 4 2 6 23 4 46 l-4 42 -25 -41 c-18 -30 -38 -47 -79 -66 -30
-14 -62 -25 -72 -25 -9 0 -41 -11 -70 -25 -30 -14 -66 -25 -81 -25 -29 0 -70
35 -56 48 4 4 10 2 12 -5 3 -8 14 -6 39 7 18 11 41 17 49 14 8 -4 15 -1 15 5
0 7 -7 14 -15 17 -8 4 -15 11 -14 18 0 16 257 142 283 139 14 -2 28 7 41 27
16 24 25 29 43 25 16 -4 28 1 40 15 13 17 31 22 75 24 45 2 57 0 53 -11 -3 -7
-1 -13 4 -13 6 0 10 14 10 30 0 37 6 37 42 3z m1887 -28 c22 -2 65 -16 96 -31
57 -28 146 -107 144 -128 0 -6 -3 -6 -6 2 -2 6 -9 12 -14 12 -6 0 -7 -4 -4
-10 3 -5 1 -10 -4 -10 -6 0 -11 -13 -11 -29 0 -34 -21 -36 -65 -5 -16 12 -41
24 -55 28 -18 4 -17 2 7 -9 17 -8 34 -19 38 -25 8 -14 -1 -13 -33 4 -37 18
-106 30 -97 17 4 -7 -9 -8 -42 -3 -26 4 -123 7 -216 7 -92 0 -167 3 -167 6 0
11 87 87 116 102 16 8 42 17 58 21 20 5 26 10 18 15 -23 14 140 53 180 44 10
-3 36 -6 57 -8z m-1662 -1 c-3 -3 -12 -4 -19 -1 -8 3 -5 6 6 6 11 1 17 -2 13
-5z m-899 -30 c6 -29 20 -40 34 -26 14 14 48 16 48 2 0 -5 -14 -23 -30 -40
-22 -22 -29 -37 -25 -51 4 -11 1 -26 -5 -34 -6 -8 -9 -18 -6 -24 3 -5 -3 -7
-14 -4 -11 3 -28 -1 -37 -8 -10 -8 -14 -9 -10 -2 4 6 3 14 -3 18 -5 3 -10 0
-10 -7 -1 -8 -6 -6 -15 5 -9 13 -20 17 -36 12 -22 -7 -43 11 -32 28 3 5 9 3
14 -4 4 -7 11 -10 15 -6 5 4 -4 19 -19 33 -32 29 -35 39 -8 24 29 -15 31 -13
25 19 -4 20 -2 30 10 34 9 4 16 16 16 27 0 23 15 27 24 5 8 -21 24 -19 31 6 8
24 29 20 33 -7z m-870 -47 c2 -15 -1 -27 -7 -27 -14 0 -33 38 -26 51 11 17 30
4 33 -24z m3092 6 c-14 -9 -27 -20 -30 -23 -3 -4 -28 -19 -56 -34 -64 -35
-210 -169 -244 -224 -14 -23 -31 -42 -38 -42 -7 0 -32 -9 -54 -20 -23 -11 -52
-20 -64 -20 -31 0 -58 44 -50 82 5 28 4 29 -12 17 -9 -8 -19 -17 -22 -20 -8
-9 -50 -30 -50 -25 0 3 9 20 20 38 15 26 46 47 142 96 68 34 128 62 135 62 7
0 27 13 45 29 22 19 58 34 108 46 41 10 83 22 94 27 13 7 16 7 12 -1 -10 -16
10 -14 26 2 14 14 36 25 53 26 5 1 -2 -7 -15 -16z m-2100 -1 c0 -5 -9 -17 -20
-27 -11 -10 -17 -22 -14 -26 3 -5 -2 -9 -11 -9 -12 0 -15 5 -9 22 10 32 54 64
54 40z m4165 -2 c3 -6 -1 -13 -10 -16 -19 -8 -30 0 -20 15 8 14 22 14 30 1z
m182 -16 c-3 -3 -12 -4 -19 -1 -8 3 -5 6 6 6 11 1 17 -2 13 -5z m-5561 -103
c-8 -20 -17 -78 -19 -129 -3 -51 -7 -95 -10 -98 -3 -3 -39 9 -80 26 -236 98
-226 145 53 260 l65 27 3 -25 c2 -14 -3 -41 -12 -61z m5827 9 c33 -17 77 -73
77 -96 0 -9 -16 -3 -47 16 -25 16 -63 33 -82 36 -20 4 -39 9 -44 11 -12 7 12
43 29 43 11 0 14 5 10 16 -5 14 -4 15 9 4 8 -7 30 -20 48 -30z m-4678 20 c3
-5 1 -10 -4 -10 -6 0 -11 5 -11 10 0 6 2 10 4 10 3 0 8 -4 11 -10z m-2558
-110 c35 -28 66 -50 70 -50 5 0 9 -11 11 -25 2 -14 9 -25 17 -25 8 0 16 -8 19
-17 8 -26 4 -96 -5 -82 -5 9 -12 8 -24 -5 -21 -20 -39 -9 -61 38 l-14 31 5
-32 c3 -26 0 -33 -16 -38 -22 -7 -63 21 -53 36 3 5 -2 16 -10 25 -19 18 -21
54 -3 55 6 0 -7 9 -30 19 -24 11 -43 22 -43 25 0 3 9 23 20 44 17 34 30 47 50
50 3 1 33 -22 67 -49z m2493 40 c0 -5 -2 -10 -4 -10 -3 0 -8 5 -11 10 -3 6 -1
10 4 10 6 0 11 -4 11 -10z m3592 -9 c-8 -4 -13 -14 -12 -22 6 -38 -14 -56 -27
-24 -6 17 23 55 41 55 6 0 5 -4 -2 -9z m998 -26 c0 -8 -4 -15 -9 -15 -13 0
-22 16 -14 24 11 11 23 6 23 -9z m-5007 -28 c34 -18 44 -19 92 -8 47 11 57 10
79 -5 15 -9 35 -14 46 -11 10 3 24 -1 31 -9 9 -11 6 -21 -15 -48 -14 -19 -26
-47 -26 -61 0 -26 1 -26 40 16 22 24 40 38 40 32 0 -7 -4 -15 -10 -18 -16 -10
-12 -35 5 -35 9 0 18 -7 22 -15 5 -14 7 -14 22 -1 9 8 28 17 43 21 61 15 42
-90 -25 -139 -36 -26 -109 -26 -139 1 -15 12 -22 14 -25 6 -10 -28 -48 -65
-85 -84 -35 -18 -45 -19 -67 -9 -25 12 -25 13 -6 21 11 4 16 8 10 9 -5 0 -2 5
8 11 9 6 15 14 12 20 -12 18 6 31 23 17 10 -8 13 -9 9 -1 -8 12 50 36 74 31
19 -4 23 28 4 36 -9 3 -14 2 -11 -3 6 -10 -55 -37 -100 -45 -57 -9 -105 6
-181 58 -61 41 -78 58 -89 91 -22 65 -12 81 76 127 43 22 93 20 143 -5z m5090
9 c26 -20 12 -76 -19 -76 -8 0 -12 5 -9 10 4 6 -4 19 -17 30 -23 20 -23 20 -4
35 24 18 26 18 49 1z m-349 -33 c-6 -31 -4 -35 10 -30 9 4 16 3 16 -2 0 -12
-26 -32 -32 -25 -3 3 -11 -10 -18 -28 l-13 -33 -10 34 c-9 28 -7 40 13 77 28
54 43 57 34 7z m86 27 c0 -5 -5 -10 -11 -10 -5 0 -7 5 -4 10 3 6 8 10 11 10 2
0 4 -4 4 -10z m-774 -63 c11 -21 18 -26 24 -17 5 8 12 1 21 -23 7 -20 17 -33
22 -30 5 3 21 -6 35 -20 15 -14 52 -38 82 -54 30 -15 91 -52 135 -82 44 -30
87 -54 95 -54 8 0 20 -7 27 -16 11 -14 12 -14 13 2 0 21 26 23 34 2 7 -18 32
-20 43 -2 4 6 15 12 23 12 10 0 16 12 18 33 2 19 16 46 33 65 l30 32 19 -25
c10 -14 22 -36 25 -50 4 -14 13 -32 22 -42 19 -22 13 -68 -12 -82 -11 -6 -22
-12 -25 -14 -2 -2 2 -7 10 -12 11 -7 8 -10 -12 -10 -16 0 -28 -2 -28 -5 0 -9
60 -65 70 -65 5 0 10 7 10 15 0 8 4 15 9 15 5 0 11 10 13 23 5 34 23 21 23
-17 1 -50 34 -104 72 -118 18 -7 33 -16 33 -20 0 -4 14 -8 30 -8 34 0 40 -15
9 -25 -14 -5 -28 0 -44 15 -25 23 -59 21 -49 -3 3 -8 -2 -20 -11 -27 -13 -11
-15 -9 -15 9 0 11 -4 21 -10 21 -23 0 -3 -30 124 -184 148 -179 291 -384 381
-548 50 -90 64 -108 84 -108 20 0 21 -2 11 -15 -10 -12 -8 -26 10 -71 24 -59
56 -89 84 -78 14 6 16 2 10 -22 -4 -16 -11 -34 -16 -41 -5 -7 -1 -33 13 -70
41 -111 90 -279 134 -458 53 -215 71 -314 59 -325 -5 -4 -39 -17 -75 -29 -151
-49 -310 -192 -349 -313 -6 -21 -8 -43 -4 -49 4 -7 3 -10 -2 -6 -10 6 -16 -65
-8 -101 l5 -22 24 26 c14 15 25 34 25 42 0 16 58 112 74 124 19 13 18 -1 -2
-44 -59 -121 -66 -279 -18 -382 22 -47 118 -156 137 -156 4 0 11 5 14 11 4 6
22 9 40 7 39 -3 56 9 35 23 -12 7 -11 10 8 15 15 4 22 14 22 31 0 20 4 23 19
18 21 -6 55 32 50 57 -5 25 11 55 36 66 21 10 26 8 35 -8 6 -11 16 -20 22 -20
17 0 37 -32 38 -59 0 -14 7 -32 15 -41 14 -15 14 -23 3 -59 -7 -23 -23 -54
-36 -69 -13 -15 -21 -21 -17 -14 7 13 -31 51 -52 52 -16 0 -17 30 -2 30 5 0 7
5 4 10 -10 15 -33 -6 -37 -33 -3 -24 -34 -35 -51 -18 -7 7 -7 14 2 24 9 12 8
16 -5 21 -14 6 -16 0 -12 -39 4 -34 2 -45 -9 -45 -7 0 -16 7 -19 15 -7 17 -30
20 -39 5 -10 -16 23 -42 44 -35 23 7 39 -14 20 -26 -11 -7 -9 -9 6 -9 17 0 17
-2 5 -10 -8 -5 -25 -10 -38 -10 -31 0 -20 -15 30 -43 130 -71 125 -68 93 -62
-16 3 -50 10 -74 15 -63 14 -77 7 -85 -43 -3 -23 -16 -79 -28 -124 l-21 -82
-76 77 c-84 86 -220 174 -338 218 -81 31 -90 37 -111 83 -11 23 -25 37 -40 39
-12 2 -22 8 -22 13 0 5 -6 9 -14 9 -9 0 -16 -12 -18 -29 l-3 -29 -82 39 c-69
33 -91 50 -130 99 -27 33 -55 60 -64 60 -9 0 -19 10 -23 23 -10 38 41 122 118
194 39 36 113 112 165 167 52 56 115 113 140 128 47 27 133 108 115 108 -5 0
-16 -6 -23 -12 -11 -11 -12 -10 -6 1 5 9 3 12 -6 9 -8 -3 -13 -13 -13 -22 1
-9 -3 -16 -9 -16 -6 0 -7 -3 -4 -7 4 -3 -2 -13 -14 -21 -11 -8 -23 -11 -26 -8
-3 3 -12 -2 -19 -12 -11 -14 -15 -15 -23 -3 -12 19 -2 51 15 44 9 -3 14 2 14
17 0 21 -1 21 -22 8 -13 -8 -40 -40 -62 -71 -21 -31 -42 -54 -47 -51 -5 3 -9
22 -9 43 0 61 -53 151 -155 266 -70 78 -97 117 -105 148 -41 161 -79 230 -153
281 -57 40 -126 56 -291 71 l-80 8 62 22 c106 38 272 208 272 277 0 7 21 21
48 31 33 12 55 29 74 57 31 45 48 51 48 17 0 -12 9 -39 20 -60 13 -23 18 -47
14 -61 -4 -16 3 -37 20 -64 20 -33 33 -42 63 -47 21 -4 47 -9 58 -13 11 -3 27
-5 35 -4 22 3 61 -41 114 -131 72 -123 77 -157 41 -272 -3 -11 5 1 19 26 27
50 66 190 66 238 0 37 31 71 64 71 27 0 36 17 36 68 -1 57 -34 118 -104 191
-36 36 -84 87 -109 114 -39 41 -50 47 -84 47 -23 0 -46 6 -53 14 -6 8 -17 13
-25 10 -7 -3 -16 -1 -20 5 -3 6 1 11 9 11 17 0 21 15 7 24 -5 3 -7 14 -4 24 2
10 -5 28 -17 42 -26 30 -34 61 -26 103 5 27 1 39 -18 60 -14 15 -36 27 -50 27
-14 0 -28 4 -31 10 -8 12 -108 8 -117 -5 -11 -14 -28 14 -28 44 0 14 -18 43
-45 72 -25 26 -45 56 -45 66 -1 14 -4 13 -15 -7 -18 -32 -19 -46 -1 -31 11 9
18 4 37 -26 13 -21 28 -41 33 -45 6 -4 4 -14 -7 -26 -16 -18 -17 -20 -1 -26
13 -5 14 -9 4 -21 -9 -11 -9 -15 -1 -15 8 0 6 -10 -5 -31 -8 -17 -14 -40 -11
-50 6 -21 -15 -31 -49 -23 -19 5 -23 11 -19 28 2 11 2 15 -1 9 -3 -7 -10 -13
-15 -13 -12 0 -11 77 1 101 22 40 -28 18 -165 -74 -49 -33 -107 -76 -127 -95
-21 -20 -39 -34 -42 -31 -10 10 -36 83 -36 100 0 10 30 52 67 91 45 50 79 100
107 158 46 96 47 110 35 420 -6 132 -10 166 -33 229 -14 41 -26 83 -26 93 0
10 -9 35 -20 55 -11 21 -20 43 -20 50 0 16 -56 131 -73 152 -25 29 -29 41 -12
35 9 -4 23 -20 31 -37z m-4556 -9 c11 -24 20 -60 20 -80 0 -37 -1 -37 -32 -31
-50 9 -78 21 -78 33 0 21 55 120 67 120 2 0 13 -19 23 -42z m-369 4 c24 -16
77 -45 117 -66 66 -35 89 -56 61 -56 -5 0 -7 -5 -3 -12 5 -8 -7 -10 -44 -5
-55 6 -110 30 -129 56 -25 33 -64 111 -56 111 5 0 29 -13 54 -28z m3696 12
c26 -9 95 -41 153 -72 58 -32 110 -57 115 -57 6 0 15 -3 20 -6 6 -3 37 -14 70
-24 33 -11 67 -25 76 -32 8 -7 23 -13 32 -13 31 0 124 -40 144 -63 12 -12 34
-53 51 -92 35 -81 52 -214 52 -403 0 -101 -2 -113 -15 -102 -52 43 -280 -72
-291 -147 -5 -29 6 -34 34 -15 41 28 111 62 127 62 8 0 15 4 15 9 0 14 58 31
103 31 l40 0 -6 -82 c-7 -96 -28 -165 -48 -159 -8 2 -46 6 -86 9 -61 3 -80 0
-125 -20 -29 -14 -75 -46 -102 -71 -27 -26 -53 -44 -57 -41 -17 10 -9 34 21
66 17 17 30 32 30 33 0 1 -11 0 -23 -2 -16 -3 -35 -24 -57 -60 -30 -49 -34
-64 -36 -136 -1 -45 0 -67 3 -49 2 17 8 32 12 32 4 0 22 -16 41 -35 19 -20 51
-41 72 -47 40 -12 45 -17 27 -35 -14 -14 -1 -37 14 -25 7 4 23 7 37 6 93 -6
110 -9 111 -18 4 -31 -4 -143 -16 -236 -28 -213 -144 -423 -370 -671 -29 -32
-76 -103 -109 -166 -75 -145 -107 -187 -162 -214 -75 -36 -166 -20 -394 68
-69 26 -170 70 -225 98 l-100 50 -6 95 c-10 149 -73 290 -184 420 -31 36 -68
86 -81 113 -13 26 -27 47 -29 47 -3 0 4 -19 16 -42 l22 -42 -64 54 c-35 30
-68 61 -72 67 -4 7 -14 13 -22 13 -17 0 -44 51 -69 125 -17 53 -30 308 -14
283 7 -13 12 4 11 40 -1 7 1 11 5 8 10 -11 34 50 37 97 2 26 7 58 11 69 6 21
6 21 -10 5 -10 -9 -19 -17 -22 -17 -2 0 33 61 78 135 45 74 85 132 90 129 4
-3 5 2 2 10 -3 9 -1 16 5 16 6 0 13 -10 16 -23 4 -13 12 -24 18 -25 49 -4 172
-66 163 -81 -5 -8 84 -71 100 -71 4 0 19 -11 33 -24 21 -21 40 -26 105 -31 43
-4 89 -10 101 -15 13 -5 26 -6 29 -3 3 3 35 8 72 10 87 4 115 19 57 29 -44 7
-60 24 -23 24 11 0 20 5 20 10 0 6 -8 10 -17 10 -15 0 -14 2 2 14 17 12 21 12
32 -3 11 -14 12 -14 13 7 0 12 6 22 15 22 16 0 52 -36 60 -59 5 -17 45 -46 45
-34 0 5 -7 20 -15 36 -20 40 1 98 41 112 16 5 31 10 33 11 9 7 -112 174 -143
197 -62 48 -199 65 -486 59 -83 -2 -97 1 -115 18 l-20 21 33 62 c47 92 121
180 162 194 51 17 189 16 241 -2 24 -9 71 -33 104 -55 33 -21 92 -53 130 -71
95 -43 160 -92 201 -153 21 -32 34 -44 34 -32 0 15 3 16 14 7 11 -10 16 -8 21
8 10 32 -42 117 -102 169 -66 57 -120 88 -208 118 -38 13 -110 38 -160 55 -68
24 -107 31 -157 31 l-68 -1 67 82 c64 78 111 126 124 127 3 0 15 -18 28 -40
25 -44 44 -49 91 -25 33 17 32 23 -7 92 -21 35 -22 45 -12 65 43 83 137 152
227 168 79 13 169 11 219 -6z m-4476 -6 c46 -16 160 -81 228 -131 31 -23 86
-55 122 -72 35 -16 66 -30 68 -32 13 -8 -60 -77 -102 -96 -78 -36 -105 -41
-136 -21 -123 78 -185 151 -219 257 -35 108 -31 119 39 95z m5286 -4 c-3 -3
-12 -4 -19 -1 -8 3 -5 6 6 6 11 1 17 -2 13 -5z m-37 -13 c0 -5 25 -13 56 -17
52 -8 57 -11 60 -36 2 -26 0 -28 -34 -29 -35 0 -36 -1 -12 -10 71 -29 130 -63
130 -75 0 -14 -25 -8 -69 16 -10 5 -53 11 -97 14 -140 10 -194 18 -188 27 3 5
-5 9 -18 9 -16 0 -19 3 -10 9 8 4 13 11 12 15 -2 13 50 48 98 66 54 21 72 24
72 11z m155 -41 c3 -5 1 -10 -4 -10 -6 0 -11 5 -11 10 0 6 2 10 4 10 3 0 8 -4
11 -10z m-1683 -17 c-6 -2 -9 -10 -5 -16 4 -7 -1 -6 -10 2 -22 18 -21 21 6 20
12 0 16 -3 9 -6z m2983 -24 c0 -15 -7 -25 -18 -27 -22 -4 -33 24 -17 43 18 21
35 13 35 -16z m-6030 -14 c78 -39 143 -91 129 -105 -11 -10 -138 -30 -191 -30
-23 0 -33 3 -25 8 9 6 5 17 -18 40 -36 38 -38 58 -8 68 20 6 21 7 4 19 -17 13
-17 14 1 24 26 15 30 14 108 -24z m2382 29 c-3 -3 -12 -4 -19 -1 -8 3 -5 6 6
6 11 1 17 -2 13 -5z m678 -41 l34 6 -17 -28 c-9 -16 -34 -46 -54 -69 -30 -33
-42 -40 -65 -37 -15 2 -22 2 -15 -2 10 -4 8 -11 -10 -30 -19 -20 -20 -26 -8
-34 12 -9 12 -10 -3 -5 -21 7 -69 -41 -62 -62 3 -7 1 -11 -4 -8 -10 7 -46 -43
-37 -51 10 -11 -123 -163 -143 -163 -6 0 1 16 14 36 23 34 31 54 21 54 -9 0
-49 -76 -48 -93 0 -9 -3 -15 -7 -12 -5 2 -30 -23 -57 -56 -27 -33 -50 -56 -52
-51 -2 6 15 48 37 94 29 61 56 99 101 143 34 32 66 67 71 77 6 10 15 15 21 12
7 -4 8 -3 4 4 -4 7 -2 12 3 12 6 0 11 7 11 15 0 8 14 34 30 57 17 22 30 47 30
53 0 23 91 151 118 168 26 15 27 15 40 -10 12 -22 19 -25 47 -20z m3175 25 c0
-16 -3 -19 -11 -11 -6 6 -8 16 -5 22 11 17 16 13 16 -11z m-3885 2 c3 -5 -1
-10 -9 -10 -9 0 -16 5 -16 10 0 6 4 10 9 10 6 0 13 -4 16 -10z m-438 -66 c-31
-27 -104 -40 -144 -27 -23 8 -18 10 36 10 70 1 107 16 117 47 5 15 8 17 12 7
3 -8 -7 -25 -21 -37z m3668 16 c-3 -5 -10 -10 -16 -10 -5 0 -9 5 -9 10 0 6 7
10 16 10 8 0 12 -4 9 -10z m-2851 -45 c-6 -16 -24 -21 -24 -7 0 11 11 22 21
22 5 0 6 -7 3 -15z m1997 -37 c17 -13 47 -38 66 -56 29 -27 33 -36 23 -45 -10
-9 -11 -9 -6 1 4 6 2 12 -3 12 -20 0 -11 -27 30 -100 22 -40 38 -74 36 -76 -2
-3 -24 28 -47 68 -24 40 -52 84 -62 97 -10 13 -18 31 -18 39 0 9 -14 31 -32
49 -37 38 -31 43 13 11z m-1387 -23 c15 -27 17 -38 8 -47 -17 -17 -52 19 -52
54 0 39 21 35 44 -7z m2524 18 c0 -10 3 -26 7 -37 6 -14 4 -17 -10 -15 -23 5
-40 32 -32 53 8 22 36 21 35 -1z m-4414 -10 c4 -10 -2 -25 -16 -40 -30 -32
-108 -83 -126 -83 -22 0 -52 30 -52 51 0 14 6 17 32 14 39 -5 86 14 117 49 28
30 37 32 45 9z m3402 -11 c-22 -5 -30 3 -21 18 5 8 11 7 22 -2 15 -12 14 -13
-1 -16z m-4796 -22 c0 -19 -49 -41 -112 -52 -51 -8 -72 -7 -107 4 l-43 15 63
16 c90 23 98 25 152 26 26 0 47 -3 47 -9z m6050 5 c0 -18 -26 -55 -40 -55 -30
0 -31 13 -3 37 27 21 43 28 43 18z m-4530 -16 c0 -6 7 -9 14 -6 9 4 13 1 10
-7 -7 -18 30 -56 54 -56 11 0 23 6 25 13 4 7 6 6 6 -5 1 -9 7 -18 14 -21 17
-7 -38 -27 -75 -27 -46 0 -95 28 -112 65 -21 43 -21 43 12 48 49 7 52 7 52 -4z
m150 -21 c0 -8 -70 -5 -76 3 -3 5 6 9 20 9 14 0 26 5 26 11 0 6 7 4 15 -5 8
-8 15 -16 15 -18z m-254 6 c-3 -8 -2 -13 3 -10 4 3 17 -10 27 -29 18 -34 18
-35 -3 -62 -18 -26 -26 -28 -87 -29 -53 0 -70 4 -83 18 -15 17 -15 21 -3 29 8
5 25 8 37 6 15 -3 24 2 29 15 6 20 64 78 78 78 4 0 5 -7 2 -16z m4400 -9 c62
-27 94 -32 94 -13 0 9 3 9 12 0 20 -20 -4 -29 -70 -26 -72 2 -65 0 -96 25 -24
19 -27 39 -6 39 5 0 35 -11 66 -25z m338 -42 c13 -25 12 -29 -15 -54 -19 -18
-36 -25 -49 -22 -11 3 -20 7 -20 8 0 13 58 95 67 95 1 0 9 -12 17 -27z m-104
7 c0 -5 -2 -10 -4 -10 -3 0 -8 5 -11 10 -3 6 -1 10 4 10 6 0 11 -4 11 -10z
m-7150 -21 c0 -5 -7 -9 -15 -9 -8 0 -15 7 -15 15 0 9 6 12 15 9 8 -4 15 -10
15 -15z m6210 -111 c5 -40 9 -95 8 -123 -1 -45 -2 -46 -5 -10 -5 57 -30 216
-38 240 -3 11 1 8 10 -7 8 -15 20 -60 25 -100z m-5779 85 c54 -60 54 -60 17
-83 -40 -24 -70 -27 -62 -5 4 9 0 15 -10 15 -20 0 -21 39 -1 46 20 8 19 24 -2
40 -17 12 -16 13 8 14 15 0 35 -11 50 -27z m6356 -9 c-3 -3 -12 -4 -19 -1 -8
3 -5 6 6 6 11 1 17 -2 13 -5z m-6552 -54 c0 -18 -33 -26 -47 -12 -6 6 -7 15
-3 22 10 16 50 8 50 -10z m778 13 c-7 -2 -21 -2 -30 0 -10 3 -4 5 12 5 17 0
24 -2 18 -5z m4957 -56 c0 -21 0 -21 -14 -2 -7 11 -16 31 -20 45 l-7 25 20
-24 c12 -13 21 -33 21 -44z m1228 41 c1 -8 -9 -20 -23 -26 -14 -6 -25 -8 -25
-3 0 5 -3 16 -6 24 -3 10 1 17 13 20 26 7 38 2 41 -15z m-6328 -7 c0 -16 -29
-33 -51 -29 -36 5 -34 26 3 31 18 2 36 5 41 5 4 1 7 -2 7 -7z m6266 -16 c3
-23 -13 -45 -32 -45 -17 0 -18 24 -3 51 12 24 31 21 35 -6z m-6069 -1 c51 -8
55 -53 5 -73 -41 -17 -180 -10 -186 9 -2 8 -4 5 -5 -7 -1 -19 -7 -23 -31 -23
-27 0 -30 3 -30 30 0 28 8 35 37 31 7 -1 17 7 23 18 14 27 75 32 187 15z
m5953 -39 c-7 -8 -17 -15 -22 -15 -6 0 -5 7 2 15 7 8 17 15 22 15 6 0 5 -7 -2
-15z m-6750 -5 c-19 -13 -30 -13 -30 0 0 6 10 10 23 10 18 0 19 -2 7 -10z
m150 1 c0 -13 -40 -60 -61 -71 -22 -12 -26 2 -6 22 8 7 19 23 26 36 11 21 41
31 41 13z m3216 -6 c-3 -8 -1 -15 3 -15 5 0 4 -11 -2 -24 -7 -14 -13 -23 -15
-21 -10 10 -94 -89 -121 -144 -18 -34 -34 -61 -37 -58 -2 2 7 37 20 77 38 111
13 70 -38 -65 -71 -184 -136 -309 -164 -313 -27 -4 -28 3 -2 110 11 46 20 90
19 98 -1 24 -88 -161 -95 -202 -4 -21 -10 -38 -14 -38 -4 0 -14 26 -23 59 -16
55 -15 62 3 127 40 141 138 305 222 372 34 27 50 32 97 33 31 1 70 5 86 9 51
13 68 12 61 -5z m-679 -1 c-3 -3 -12 -4 -19 -1 -8 3 -5 6 6 6 11 1 17 -2 13
-5z m-1517 -44 c0 -5 -35 -36 -77 -68 -43 -33 -105 -85 -138 -116 -33 -31 -61
-56 -62 -56 -24 0 110 152 182 205 57 42 95 57 95 35z m-515 -10 c3 -5 1 -10
-4 -10 -6 0 -11 5 -11 10 0 6 2 10 4 10 3 0 8 -4 11 -10z m74 -11 c36 -13 45
-45 9 -35 -13 3 -29 6 -35 6 -7 0 -13 9 -13 20 0 23 -2 23 39 9z m-90 -25 c14
-8 20 -14 13 -14 -7 0 -11 -4 -8 -9 3 -4 -5 -21 -18 -36 -30 -35 -39 -65 -21
-65 21 0 118 53 143 78 14 14 32 22 45 20 57 -8 10 -83 -48 -76 -27 3 -36 -1
-49 -22 -39 -63 -50 -72 -79 -61 -17 7 -27 18 -27 31 0 25 -30 27 -30 3 -1
-42 -63 -88 -131 -98 -41 -6 -47 -4 -61 17 -32 48 -30 62 11 81 20 9 44 17 52
17 23 0 59 30 70 57 7 19 14 23 29 18 18 -6 20 -3 15 18 -4 14 -2 35 5 46 12
23 38 21 89 -5z m3005 -6 c-55 -64 -77 -82 -164 -134 -52 -31 -124 -79 -159
-107 -55 -44 -63 -47 -56 -26 12 39 11 44 -7 41 -25 -4 -23 2 15 53 17 24 40
44 51 45 10 0 39 15 65 33 61 45 76 53 67 39 -10 -17 -7 -16 95 33 107 51 120
54 93 23z m-144 -22 c0 -2 -7 -7 -16 -10 -8 -3 -12 -2 -9 4 6 10 25 14 25 6z
m-100 -40 c0 -3 -4 -8 -10 -11 -5 -3 -10 -1 -10 4 0 6 5 11 10 11 6 0 10 -2
10 -4z m-2542 -29 c4 -19 -6 -21 -27 -8 -16 10 -5 34 12 28 7 -2 13 -11 15
-20z m-35 -60 c-3 -5 -9 -3 -14 4 -4 7 -5 17 -2 22 3 5 9 3 14 -4 4 -7 5 -17
2 -22z m602 19 c30 -8 60 -18 65 -21 18 -11 10 -46 -15 -70 -16 -14 -22 -26
-15 -30 22 -14 6 -24 -94 -64 -56 -23 -134 -60 -171 -82 -37 -22 -70 -38 -72
-35 -2 2 17 41 42 87 41 74 174 229 197 229 4 0 32 -7 63 -14z m-1965 -11 c0
-2 -14 -12 -31 -20 -44 -23 -175 -151 -211 -207 -17 -26 -33 -46 -36 -44 -10
10 57 115 103 161 71 71 175 137 175 110z m118 -64 c-21 -10 -45 -24 -55 -32
-10 -8 -31 -21 -47 -29 -16 -8 -37 -27 -45 -43 -9 -15 -22 -25 -29 -22 -18 7
-93 -72 -120 -127 -14 -29 -25 -75 -29 -117 -8 -97 -27 -80 -21 18 5 87 35
161 92 227 49 58 212 140 281 142 6 0 -7 -7 -27 -17z m1020 -7 c51 -36 13 -65
-55 -43 -38 12 -38 12 -16 39 21 24 41 25 71 4z m5232 -53 c0 -68 -28 -155
-71 -223 -30 -47 -61 -73 -71 -62 -3 3 5 39 18 80 13 41 24 80 24 87 0 22 83
186 91 181 5 -3 9 -31 9 -63z m-1907 52 c-7 -2 -21 -2 -30 0 -10 3 -4 5 12 5
17 0 24 -2 18 -5z m-1660 -30 c-7 -2 -19 -2 -25 0 -7 3 -2 5 12 5 14 0 19 -2
13 -5z m4791 -39 c36 -35 6 -86 -39 -66 -25 12 -42 52 -30 71 9 16 51 13 69
-5z m-6534 -15 c0 -6 -4 -7 -10 -4 -5 3 -10 11 -10 16 0 6 5 7 10 4 6 -3 10
-11 10 -16z m35 1 c3 -6 -1 -7 -9 -4 -18 7 -21 14 -7 14 6 0 13 -4 16 -10z
m-893 -120 c22 -38 6 -48 -38 -25 -16 8 -40 15 -52 15 -35 0 -82 -37 -82 -64
0 -30 -15 -42 -63 -50 l-39 -7 19 31 c10 18 32 41 48 53 17 12 32 24 35 28 7
10 111 47 135 48 12 1 27 -11 37 -29z m189 -21 c15 -15 16 -23 8 -49 -7 -19
-18 -30 -29 -30 -24 0 -36 20 -19 31 11 6 10 12 -5 28 -39 43 3 62 45 20z
m591 14 c8 -10 19 -30 26 -45 14 -35 96 -82 139 -81 22 1 33 -4 33 -13 0 -8 9
-14 19 -14 11 0 22 -4 26 -9 3 -5 -4 -85 -15 -177 -12 -92 -19 -173 -16 -181
3 -8 10 -83 16 -166 5 -87 18 -185 29 -230 24 -92 90 -237 132 -289 30 -38 30
-38 7 -38 -63 0 -201 58 -314 131 -104 67 -192 156 -272 272 -54 77 -54 78
-37 105 10 15 27 38 39 51 20 22 20 23 1 12 -11 -6 -30 -18 -42 -27 -40 -29
-25 4 25 52 51 51 41 50 -25 -2 l-41 -34 -16 47 c-11 32 -16 83 -16 163 0 190
24 269 82 270 18 0 29 7 33 21 4 11 17 24 30 29 22 8 35 35 61 125 6 19 18 32
34 36 39 11 46 10 62 -8z m559 -59 c-23 -73 -42 -114 -53 -114 -12 0 -10 15
12 77 19 56 48 108 55 101 3 -2 -4 -31 -14 -64z m2970 16 c8 0 20 -9 26 -19
11 -18 10 -19 -22 -14 -47 8 -44 -8 6 -30 46 -22 85 -16 94 13 8 25 45 27 45
3 -1 -51 -55 -68 -150 -48 -75 16 -120 34 -120 48 0 5 -9 20 -20 34 -11 14
-20 30 -20 34 0 17 40 9 60 -11 11 -11 20 -31 20 -45 0 -14 4 -25 9 -25 5 0
18 -3 28 -6 17 -5 17 -5 1 6 -21 13 -24 40 -5 40 9 0 9 2 0 8 -7 4 -10 17 -6
30 5 22 5 22 23 2 9 -11 24 -20 31 -20z m-2821 -26 c0 -4 -15 -25 -34 -48 -43
-53 -80 -126 -123 -245 -19 -53 -37 -98 -40 -101 -3 -3 -3 29 -1 70 6 86 43
171 100 230 19 19 45 50 57 68 20 29 41 42 41 26z m1265 -24 c-3 -5 -23 -9
-43 -9 l-37 2 40 7 c22 4 41 8 43 9 2 0 0 -3 -3 -9z m-2440 -95 c17 -17 38
-36 48 -41 14 -8 21 -36 33 -130 10 -78 29 -160 55 -240 l41 -122 -47 -63
c-120 -163 -144 -302 -76 -437 45 -88 102 -147 184 -187 65 -31 85 -36 197
-45 143 -11 278 -4 300 16 44 38 223 94 415 129 41 8 384 9 392 1 2 -2 -3 -11
-11 -19 -10 -9 -12 -17 -5 -19 5 -2 12 -17 15 -35 5 -29 2 -32 -42 -47 -26 -9
-55 -16 -65 -16 -10 0 -21 -5 -25 -12 -5 -8 22 -10 107 -6 63 3 128 2 144 -1
28 -7 27 -8 -23 -19 -29 -7 -79 -13 -110 -13 -31 -1 -46 -3 -32 -5 14 -3 45
-7 70 -11 l45 -8 -70 -6 c-60 -5 -53 -6 48 -6 65 -1 121 -3 124 -6 27 -28
-283 -42 -412 -18 -33 5 -112 20 -175 31 -150 27 -311 37 -458 28 -180 -11
-344 -68 -559 -194 -141 -83 -193 -124 -252 -198 -54 -69 -60 -73 -79 -54 -8
8 -12 9 -12 1 0 -6 4 -13 9 -15 5 -1 -9 -24 -32 -49 -23 -25 -59 -65 -79 -90
l-36 -44 10 45 c21 85 18 95 -27 98 -40 4 -122 -15 -131 -29 -2 -4 2 -37 10
-71 15 -64 12 -143 -6 -154 -6 -4 -8 5 -3 25 4 19 3 31 -4 31 -5 0 -11 -10
-13 -22 -2 -12 -8 -23 -15 -25 -8 -3 -10 6 -7 29 8 44 -22 84 -54 74 -33 -11
-75 -72 -76 -111 -2 -39 -13 -55 -22 -31 -3 9 -12 16 -19 16 -22 0 -22 34 -1
57 71 77 89 107 81 135 -5 20 -4 20 5 6 6 -10 16 -18 21 -18 6 0 18 -8 27 -17
16 -16 17 -15 20 10 4 31 10 34 28 10 14 -20 27 -14 19 9 -9 23 -79 58 -114
58 -18 0 -45 -7 -61 -15 -32 -16 -80 -74 -80 -96 0 -8 -7 -23 -15 -33 -8 -11
-15 -28 -15 -37 0 -10 -5 -21 -11 -24 -7 -5 -8 4 -4 27 5 24 2 39 -8 49 -21
22 -29 92 -13 115 8 10 16 17 18 14 24 -37 35 -69 25 -79 -8 -8 -8 -11 1 -11
7 0 12 4 12 10 0 5 16 28 36 50 20 21 33 43 30 48 -3 6 4 21 15 36 l21 26 -37
50 c-20 28 -35 56 -32 62 3 8 9 1 15 -14 21 -53 145 -119 221 -118 44 1 105
28 124 55 10 14 23 25 29 25 6 0 5 -7 -3 -16 -11 -14 -9 -15 27 -12 30 3 38 8
36 21 -2 9 2 25 7 35 5 10 6 24 1 31 -6 10 -9 8 -15 -8 -3 -11 -13 -21 -20
-21 -11 0 -13 8 -9 33 6 30 5 30 -17 -12 -24 -44 -52 -71 -64 -59 -4 3 -8 27
-10 53 -3 39 -10 54 -40 82 -19 18 -40 33 -45 33 -6 0 -10 5 -10 11 0 11 44 7
92 -7 14 -4 16 -1 12 13 -5 16 -4 16 10 -1 9 -11 12 -22 7 -25 -5 -4 -3 -14 4
-24 13 -18 14 -17 20 3 4 11 1 27 -5 35 -6 8 -9 19 -6 24 4 5 1 13 -5 17 -8 5
-9 3 -4 -6 5 -9 4 -11 -4 -6 -6 4 -9 11 -6 16 3 5 -4 23 -16 39 -36 50 -7 68
42 26 19 -15 36 -22 47 -18 14 6 15 4 5 -9 -10 -12 -10 -23 -2 -49 17 -51 29
-58 29 -17 0 20 -5 40 -10 43 -6 4 -8 10 -5 15 3 5 1 19 -5 31 -10 18 -10 19
8 10 10 -5 23 -16 29 -23 17 -20 26 -133 14 -156 -6 -12 -7 -23 -2 -26 13 -8
34 21 27 39 -3 8 0 15 6 15 13 0 6 73 -11 110 -31 67 -88 140 -110 140 -27 1
-52 27 -60 62 -4 18 -4 96 -1 172 4 77 5 148 2 158 -2 10 0 18 6 18 6 0 13 19
17 43 8 47 73 266 101 340 14 35 16 52 8 64 -8 14 -6 21 9 33 18 15 16 16 -25
12 -57 -4 -31 13 35 22 46 7 66 26 27 26 -27 0 -26 34 2 60 l23 21 -68 -3
c-45 -2 -67 1 -67 8 0 7 -8 15 -17 19 -17 6 -17 7 1 21 11 8 28 11 39 8 16 -5
17 -3 8 14 -15 29 -14 52 4 52 9 0 15 9 15 21 0 15 5 19 15 15 9 -3 15 0 15 9
0 8 5 15 11 15 7 0 9 -9 6 -22 -6 -22 7 -48 24 -48 5 0 9 7 9 15 0 8 -4 15
-10 15 -16 0 -12 36 6 51 14 11 18 10 33 -9 12 -17 24 -21 49 -18 17 2 32 -1
32 -6 0 -22 24 1 35 33 7 19 17 35 23 35 23 3 24 4 12 19 -7 8 -10 21 -7 29 3
8 0 17 -8 19 -8 4 -13 21 -13 44 l0 38 27 -34 c14 -19 40 -49 56 -66z m5113
38 c-3 -25 -6 -28 -39 -25 -20 1 -49 -2 -64 -8 -25 -10 -27 -9 -15 5 18 21 80
54 103 55 14 0 18 -6 15 -27z m-5570 -11 c2 -13 11 -22 21 -22 24 0 46 -69 25
-77 -8 -3 -14 -14 -14 -25 0 -18 -4 -20 -32 -14 -45 9 -80 34 -76 54 3 14 13
16 51 14 26 -2 47 -1 47 2 0 3 -11 16 -25 30 -14 14 -25 35 -25 46 0 28 24 21
28 -8z m55 13 c-3 -9 -8 -14 -10 -11 -3 3 -2 9 2 15 9 16 15 13 8 -4z m3027
-25 c0 -5 -7 -10 -15 -10 -10 0 -15 -10 -15 -34 0 -19 -4 -37 -8 -40 -15 -9
-12 -70 5 -88 10 -11 13 -26 8 -47 -5 -24 -3 -31 9 -31 9 0 16 -4 16 -9 0 -22
55 -72 91 -82 l39 -12 -2 -61 c-1 -42 -3 -49 -5 -23 -4 31 -8 37 -27 37 -13 0
-29 7 -36 15 -7 8 -18 15 -24 15 -33 1 -84 72 -120 167 -25 66 -26 76 -15 110
16 51 38 83 63 93 29 12 36 12 36 0z m-691 -23 c28 -12 30 -15 17 -26 -12 -10
-22 -10 -50 0 -31 11 -33 14 -18 25 9 8 18 14 18 14 1 0 16 -6 33 -13z m-2534
-7 c-3 -5 -13 -10 -21 -10 -8 0 -12 5 -9 10 3 6 13 10 21 10 8 0 12 -4 9 -10z
m1558 -195 c6 -169 -1 -194 -22 -81 -12 66 -14 170 -4 229 11 72 21 22 26
-148z m-1079 160 c-4 -8 -8 -15 -10 -15 -2 0 -4 7 -4 15 0 8 4 15 10 15 5 0 7
-7 4 -15z m6291 -16 c-4 -5 -13 -9 -22 -9 -13 0 -13 3 -3 15 13 15 35 11 25
-6z m-3678 -66 c-3 -10 -5 -4 -5 12 0 17 2 24 5 18 2 -7 2 -21 0 -30z m3221
26 c-5 -15 -108 -71 -122 -66 -13 4 93 77 112 77 8 0 12 -5 10 -11z m341 -43
c-26 -28 -33 -15 -12 22 15 26 19 28 24 14 4 -10 -1 -25 -12 -36z m-1043 36
c17 -11 36 -51 29 -62 -3 -5 3 -15 15 -22 11 -7 20 -16 20 -20 0 -13 -48 -9
-85 6 -38 16 -47 27 -16 19 27 -7 47 30 26 47 -27 22 -17 51 11 32z m874 -36
c0 -18 -9 -87 -21 -152 -15 -88 -25 -124 -40 -137 -11 -11 -21 -17 -23 -16 -1
2 -16 29 -33 59 -37 66 -36 98 5 149 16 20 35 47 42 61 15 30 50 70 62 70 4 0
8 -15 8 -34z m107 9 c9 -25 -2 -27 -22 -5 -17 18 -17 20 -1 20 9 0 19 -7 23
-15z m-817 -13 c0 -10 -14 -31 -30 -47 -24 -23 -33 -26 -42 -17 -10 10 -5 20
22 46 41 39 50 43 50 18z m836 -35 c9 3 14 -3 14 -18 0 -15 3 -19 8 -12 4 6
19 14 33 18 35 9 53 -15 45 -57 -8 -43 -13 -71 -15 -82 0 -5 -8 -3 -16 4 -15
12 -39 5 -30 -10 3 -4 3 -14 0 -22 -7 -17 -97 -17 -103 0 -2 6 -10 8 -19 5
-12 -5 -14 2 -12 33 1 21 -1 49 -5 61 -4 14 1 40 14 72 l22 50 25 -24 c14 -13
32 -21 39 -18z m-3476 -29 c22 -44 29 -71 24 -90 -3 -16 -1 -28 4 -28 8 0 35
-70 29 -76 -11 -11 -53 82 -73 158 -27 107 -25 98 -19 98 3 0 19 -28 35 -62z
m-3169 -5 c13 -16 12 -17 -3 -4 -17 13 -22 21 -14 21 2 0 10 -8 17 -17z m2045
-71 c-15 -15 -16 -15 -16 0 0 9 5 29 12 45 l12 28 4 -29 c2 -17 -3 -35 -12
-44z m-1990 27 c19 -22 19 -22 -3 -10 -24 12 -39 31 -25 31 5 0 17 -10 28 -21z
m1281 -56 c-2 -16 -4 -3 -4 27 0 30 2 43 4 28 2 -16 2 -40 0 -55z m-1193 21
c20 -3 39 -10 42 -15 3 -5 21 -9 40 -9 19 0 34 -4 34 -10 0 -25 -158 13 -176
42 -5 7 -1 9 9 5 8 -3 32 -9 51 -13z m2116 -56 c59 -82 144 -168 164 -168 30
0 66 -27 66 -50 0 -25 -21 -70 -32 -70 -5 0 -26 9 -47 20 -52 26 -118 102
-151 175 -29 63 -45 125 -32 125 5 0 19 -15 32 -32z m-620 -24 c0 -21 -4 -33
-10 -29 -5 3 -10 22 -10 41 0 21 4 33 10 29 6 -3 10 -22 10 -41z m6558 14 c19
-19 14 -46 -9 -53 -31 -10 -55 16 -40 44 13 24 31 27 49 9z m-8520 -30 c-6
-18 -28 -21 -28 -4 0 9 7 16 16 16 9 0 14 -5 12 -12z m559 -14 c-3 -3 -12 -4
-19 -1 -8 3 -5 6 6 6 11 1 17 -2 13 -5z m3163 -100 c0 -8 -4 -12 -10 -9 -5 3
-10 10 -10 16 0 5 5 9 10 9 6 0 10 -7 10 -16z m281 -1 c13 -16 12 -17 -3 -4
-17 13 -22 21 -14 21 2 0 10 -8 17 -17z m84 -71 c-3 -3 -16 5 -28 17 l-22 23
28 -17 c15 -10 25 -20 22 -23z m-4029 -28 c-5 -13 -10 -14 -18 -6 -6 6 -8 18
-4 28 5 13 10 14 18 6 6 -6 8 -18 4 -28z m4034 0 c0 -2 -9 0 -20 6 -11 6 -20
13 -20 16 0 2 9 0 20 -6 11 -6 20 -13 20 -16z m-3822 -49 c34 -28 55 -73 50
-106 -5 -33 -26 -35 -33 -2 -12 52 -29 88 -54 111 -34 32 -2 30 37 -3z m934
-95 c94 -143 268 -291 413 -351 30 -12 55 -26 55 -29 0 -8 -137 -36 -221 -46
-113 -13 -295 48 -354 118 -47 56 -76 130 -76 197 -1 61 15 128 34 146 10 10
9 5 -10 -64 -4 -15 -2 -22 4 -18 6 4 16 28 23 54 8 27 23 63 34 81 18 28 22
30 31 15 6 -9 36 -55 67 -103z m668 -43 c51 -127 105 -180 220 -218 36 -11 74
-29 84 -39 19 -19 19 -19 -10 -31 -40 -16 -150 -16 -202 -1 -63 19 -104 61
-147 153 -32 68 -39 96 -43 162 l-5 79 40 -23 c32 -18 44 -34 63 -82z m-2080
78 c0 -8 -4 -15 -10 -15 -5 0 -10 7 -10 15 0 8 5 15 10 15 6 0 10 -7 10 -15z
m4560 -13 c48 -23 149 -107 116 -95 -13 4 -17 3 -12 -5 4 -7 15 -12 26 -12 10
0 42 -26 71 -57 75 -82 168 -283 130 -283 -4 0 -16 21 -26 48 -38 99 -141 243
-216 302 -21 18 -37 35 -34 40 3 4 -3 14 -13 21 -15 13 -16 12 -3 -3 25 -33
-4 -18 -54 28 -54 49 -53 50 15 16z m-4235 8 c3 -5 1 -10 -4 -10 -6 0 -11 5
-11 10 0 6 2 10 4 10 3 0 8 -4 11 -10z m-17 -41 c-2 -6 -8 -10 -13 -10 -5 0
-11 4 -13 10 -2 6 4 11 13 11 9 0 15 -5 13 -11z m4255 -72 c50 -50 102 -116
95 -122 -2 -3 -41 22 -86 55 -56 41 -82 67 -82 81 0 13 5 18 13 14 6 -4 4 0
-5 8 -10 8 -18 17 -18 21 0 13 42 -16 83 -57z m-4079 -8 c-20 -40 -36 -47 -28
-12 11 47 25 68 34 52 5 -7 3 -24 -6 -40z m-166 -6 c38 -41 40 -53 8 -53 -43
0 -99 61 -81 89 9 15 37 2 73 -36z m6872 -24 c51 -10 175 -68 166 -77 -2 -2
-13 1 -24 7 -12 6 -33 11 -49 10 -28 0 -28 0 -4 -10 35 -14 21 -19 -24 -9 -22
5 -80 15 -130 22 -86 12 -88 13 -45 19 25 3 37 7 27 7 -28 3 -78 32 -72 42 6
10 75 5 155 -11z m-3880 -19 c0 -5 -6 -10 -12 -11 -10 0 -10 -2 0 -6 16 -6 16
-43 -1 -43 -7 0 -50 -5 -96 -11 -72 -8 -87 -8 -99 5 -19 18 -22 17 99 50 99
28 109 29 109 16z m-786 -59 c59 -42 64 -49 45 -54 -17 -5 -34 6 -78 48 -31
30 -51 55 -45 55 6 0 41 -22 78 -49z m1609 -13 c24 -4 62 -110 79 -219 7 -44
16 -79 20 -79 9 0 2 57 -18 150 -8 36 -17 76 -20 89 -7 33 5 78 22 85 19 7 69
-101 96 -209 18 -71 19 -88 9 -154 -6 -41 -22 -97 -35 -125 l-24 -51 -15 35
c-9 19 -17 33 -17 30 -15 -99 -32 -165 -52 -192 l-23 -33 -3 113 c-2 100 -5
112 -18 101 -12 -10 -18 -8 -34 9 -16 16 -20 36 -20 84 0 35 -7 101 -15 147
-12 65 -13 93 -4 119 6 18 8 44 5 56 -4 15 0 28 9 36 8 7 15 20 15 28 0 14 1
14 13 0 6 -9 20 -18 30 -20z m-1078 3 c7 -12 -17 -18 -75 -20 -51 -2 -59 -6
-42 -23 10 -10 19 -8 42 5 18 11 30 14 30 7 0 -12 -59 -40 -85 -40 -28 0 -18
46 13 58 55 22 108 27 117 13z m1563 -14 c-1 -3 12 -16 31 -29 19 -13 42 -34
53 -48 25 -34 48 -169 55 -325 5 -120 4 -134 -17 -182 -12 -29 -26 -53 -29
-53 -4 0 -13 27 -19 59 -7 33 -21 79 -31 103 -11 24 -25 70 -31 103 -7 33 -28
113 -47 178 -37 125 -36 142 9 149 27 4 36 28 11 29 -17 1 -17 2 0 6 10 3 14
10 11 16 -4 7 -4 9 0 5 4 -3 6 -9 4 -11z m4572 -42 c30 -32 17 -51 -23 -36
-28 11 -31 18 -21 45 8 22 17 20 44 -9z m-1732 -30 c-3 -3 -9 2 -12 12 -6 14
-5 15 5 6 7 -7 10 -15 7 -18z m1862 -40 c0 -18 -5 -25 -19 -25 -26 0 -36 17
-21 35 19 23 40 18 40 -10z m-4519 -105 c5 0 9 -7 9 -16 0 -8 7 -23 16 -31 10
-10 13 -25 9 -40 -3 -14 -2 -22 4 -19 5 3 14 -22 20 -57 28 -161 -49 -434
-151 -536 -53 -53 -227 -149 -248 -136 -6 4 -17 1 -25 -5 -8 -6 -24 -9 -37 -5
-18 5 -20 4 -8 -4 12 -9 11 -11 -7 -11 -20 0 -23 5 -23 35 0 33 -2 35 -25 29
-31 -8 -33 9 -3 30 25 18 42 21 33 6 -20 -32 117 18 223 82 35 21 68 36 72 33
12 -8 89 93 119 155 25 53 26 62 26 235 0 99 -3 182 -6 185 -3 3 -8 28 -11 55
-2 28 -3 42 -1 33 3 -10 9 -18 14 -18z m2154 -51 c63 -38 137 -107 129 -120
-3 -6 -22 -8 -42 -7 -30 2 -36 0 -34 -14 2 -12 -3 -15 -19 -11 -14 4 -25 0
-31 -11 -10 -17 -43 -22 -52 -7 -9 15 -68 20 -62 5 3 -7 -15 0 -39 14 -25 15
-42 33 -40 40 3 7 -6 12 -23 13 -24 0 -25 1 -7 9 17 7 17 9 3 9 -22 1 -24 27
-2 35 9 3 28 6 42 6 l27 0 -30 20 c-41 27 -38 44 10 52 66 10 113 1 170 -33z
m2089 -92 c74 -34 151 -91 172 -126 11 -19 23 -27 34 -24 14 4 26 -12 54 -69
73 -147 83 -301 31 -460 -42 -125 -87 -184 -179 -232 -59 -31 -76 -33 -76 -6
0 17 -5 19 -27 15 l-28 -6 25 15 c14 8 29 12 34 9 5 -4 6 -2 3 4 -3 5 17 32
46 59 91 87 177 263 177 364 0 47 -24 130 -54 188 -65 125 -262 232 -427 232
-38 0 -78 -4 -91 -9 -13 -5 -43 -15 -68 -22 -47 -14 -168 -73 -185 -91 -7 -7
-6 -12 3 -15 21 -8 13 -21 -18 -28 -36 -8 -40 -25 -6 -25 25 0 44 -30 32 -49
-3 -5 3 -7 14 -4 14 4 20 0 20 -12 0 -13 -6 -16 -22 -12 l-23 6 22 -19 c22
-17 22 -20 8 -54 -9 -20 -20 -36 -25 -36 -16 0 -24 30 -11 43 16 16 14 30 -3
24 -11 -4 -16 6 -21 36 -4 23 -14 52 -22 64 -12 19 -13 26 -3 38 18 22 3 18
-22 -5 -34 -31 -40 -24 -17 20 25 48 62 76 111 85 45 9 90 51 68 65 -11 7 -8
11 15 21 103 40 151 48 276 45 111 -2 132 -6 183 -29z m-6767 -26 c24 -7 17
-10 -52 -25 -44 -10 -123 -29 -175 -42 -196 -50 -454 -88 -508 -74 -23 5 -23
6 -5 22 25 22 193 86 283 108 41 10 84 21 95 24 28 7 328 -4 362 -13z m-1854
-46 c-3 -9 -8 -14 -10 -11 -3 3 -2 9 2 15 9 16 15 13 8 -4z m382 -3 c-3 -3
-11 0 -18 7 -9 10 -8 11 6 5 10 -3 15 -9 12 -12z m-205 -16 c0 -2 -7 -6 -15
-10 -8 -3 -15 -1 -15 4 0 6 7 10 15 10 8 0 15 -2 15 -4z m-188 -85 c-6 -3 -10
-20 -9 -36 1 -17 -2 -32 -8 -35 -15 -7 -18 91 -4 126 l12 29 10 -39 c6 -26 6
-40 -1 -45z m294 64 c18 -13 18 -14 -4 -8 -12 3 -25 9 -28 14 -8 14 10 11 32
-6z m3927 -27 c30 -82 40 -126 33 -154 -13 -50 -169 -194 -211 -194 -3 0 5 19
18 43 28 48 127 307 127 331 0 30 17 16 33 -26z m2156 17 c100 -21 156 -52
250 -137 43 -40 79 -75 80 -78 1 -11 -91 -50 -119 -50 -20 0 -30 -5 -30 -15 0
-8 -7 -15 -16 -15 -8 0 -12 5 -8 11 7 12 -45 5 -81 -11 -11 -5 -49 -15 -85
-23 -38 -9 -54 -15 -37 -16 47 -2 28 -33 -28 -47 -17 -4 -59 -20 -94 -35 -35
-16 -67 -29 -70 -29 -3 1 12 17 34 36 28 25 31 30 10 16 -37 -25 -170 -162
-177 -181 -13 -41 -117 88 -149 184 -22 70 -17 172 12 235 l26 55 12 -86 c7
-47 16 -91 21 -98 14 -24 18 3 9 59 l-9 55 37 33 c38 34 35 41 -7 17 -36 -20
-40 -19 -40 15 0 23 8 35 38 54 33 21 99 46 157 59 47 11 196 6 264 -8z
m-4285 -255 c4 -19 10 -44 13 -54 4 -16 -6 -13 -63 19 -94 51 -210 135 -225
163 -12 21 -11 26 11 43 14 10 66 32 115 48 143 46 129 54 136 -74 3 -60 9
-126 13 -145z m6338 243 c34 -21 63 -65 71 -110 8 -41 -3 -42 -31 -4 -11 16
-44 39 -71 52 -45 20 -49 24 -39 43 10 19 27 35 36 36 2 0 17 -8 34 -17z
m-227 -13 c23 -10 21 -11 -20 -14 -35 -3 -48 2 -40 15 7 11 33 11 60 -1z
m-3584 -86 c23 -27 91 -150 117 -211 19 -44 21 -59 13 -95 -13 -58 -12 -126 1
-107 13 19 0 -28 -17 -61 l-13 -25 -14 30 c-13 29 -13 28 -19 -40 -3 -39 -4
-71 -3 -73 0 -1 23 7 49 18 62 27 68 20 11 -14 -24 -14 -65 -42 -91 -61 -25
-20 -51 -33 -57 -29 -6 4 -8 3 -5 -3 12 -19 -30 -44 -74 -46 -24 -1 -50 -9
-57 -17 -12 -13 -13 -13 -8 3 9 29 -8 19 -44 -28 -41 -52 -54 -56 -48 -15 9
62 -16 22 -45 -71 -21 -68 -38 -104 -62 -129 -36 -39 -55 -86 -55 -136 0 -43
-20 -137 -28 -130 -3 4 -8 25 -11 49 -6 39 -8 42 -36 42 -17 0 -43 9 -58 19
-23 16 -35 17 -64 10 -31 -8 -38 -15 -48 -52 -7 -23 -9 -45 -4 -48 21 -13 -1
-79 -40 -118 -22 -23 -45 -53 -50 -69 -11 -27 -36 -45 -48 -33 -3 3 -9 61 -13
129 -7 111 -11 132 -43 206 l-36 83 27 24 c15 13 39 27 54 30 15 4 29 12 32
19 2 7 -15 39 -40 71 -24 33 -43 66 -41 74 1 10 -5 14 -17 12 -10 -2 -15 1
-12 6 3 6 0 12 -6 15 -9 3 -6 8 7 13 11 4 36 20 55 34 19 15 52 39 73 54 52
38 39 44 -24 12 -28 -15 -54 -25 -57 -22 -3 3 0 6 7 6 7 0 11 7 8 14 -4 9 -1
13 6 11 7 -3 18 -1 26 4 17 11 -2 51 -24 51 -8 0 -15 5 -15 10 0 14 78 50 110
50 43 0 168 39 233 72 90 44 202 125 247 175 43 49 97 156 130 256 15 45 28
67 39 68 10 0 12 2 4 6 -7 2 -13 11 -13 20 0 15 58 -25 91 -63z m-3232 62 c-2
-2 -67 -29 -144 -60 -102 -41 -170 -77 -251 -131 -140 -95 -287 -228 -360
-328 -32 -42 -59 -76 -60 -74 -5 5 17 78 36 122 10 22 23 54 29 71 26 68 194
191 349 254 42 17 115 49 162 71 88 40 191 76 224 78 11 1 17 -1 15 -3z
m-1711 -38 c19 -19 14 -50 -12 -83 -20 -25 -26 -27 -39 -17 -19 16 -34 -3 -18
-22 9 -10 7 -22 -8 -47 -17 -31 -30 -100 -35 -189 -3 -52 11 -117 39 -178 23
-50 24 -54 5 -37 -11 10 -27 35 -37 56 -9 21 -20 36 -23 34 -17 -10 -51 126
-50 198 0 39 -2 97 -6 128 -6 52 -4 58 22 82 15 14 39 29 53 32 14 4 36 17 49
31 27 27 42 30 60 12z m454 -70 c44 -21 57 -38 28 -38 -52 0 -110 52 -110 99
0 23 1 22 23 -10 12 -19 39 -42 59 -51z m6706 63 c3 -8 -1 -12 -9 -9 -7 2 -15
10 -17 17 -3 8 1 12 9 9 7 -2 15 -10 17 -17z m-5458 -1 c0 -13 -61 -38 -78
-32 -8 3 3 12 25 23 45 21 53 22 53 9z m-1440 -40 c0 -5 -4 -10 -10 -10 -5 0
-10 5 -10 10 0 6 5 10 10 10 6 0 10 -4 10 -10z m99 -45 c11 -19 16 -35 11 -35
-8 0 -50 61 -50 74 0 14 18 -5 39 -39z m8158 -1 c-3 -3 -12 -4 -19 -1 -8 3 -5
6 6 6 11 1 17 -2 13 -5z m-3964 -81 c-15 -20 -44 -47 -63 -62 -28 -21 -23 -12
25 44 60 70 93 86 38 18z m4132 47 c3 -5 -1 -10 -9 -10 -9 0 -16 5 -16 10 0 6
4 10 9 10 6 0 13 -4 16 -10z m-6440 -33 c14 -12 28 -35 29 -50 5 -39 -32 -74
-49 -47 -3 6 1 10 9 10 12 0 8 11 -15 45 -42 62 -26 87 26 42z m6417 -2 c0 -5
-5 -11 -11 -13 -6 -2 -11 4 -11 13 0 9 5 15 11 13 6 -2 11 -8 11 -13z m-4512
-5 c0 -16 -35 -42 -116 -86 -42 -23 -70 -44 -62 -47 10 -3 8 -8 -6 -20 -19
-14 -19 -15 11 -21 17 -4 48 -4 69 0 25 5 35 3 30 -4 -13 -22 -111 -44 -229
-52 -67 -5 -166 -16 -219 -24 -75 -11 -157 -14 -370 -10 -150 3 -300 7 -334
10 -58 5 -61 7 -73 39 -34 95 42 107 589 91 261 -7 313 -6 360 7 87 24 239 85
268 107 28 20 82 27 82 10z m4460 0 c0 -5 -9 -19 -20 -30 -18 -18 -40 -27 -40
-15 0 2 5 16 12 30 11 24 48 36 48 15z m190 -58 c0 -5 8 -17 18 -28 10 -12 17
-37 18 -66 2 -75 7 -82 60 -74 25 3 52 13 61 21 18 19 35 15 48 -11 6 -11 21
-31 33 -44 13 -14 30 -38 39 -53 12 -25 13 -31 0 -45 -8 -10 -17 -25 -20 -34
-4 -10 -11 -18 -17 -18 -14 0 -13 13 3 35 19 25 7 81 -16 77 -11 -2 -17 4 -17
16 0 21 -25 32 -77 32 -43 0 -84 -16 -111 -46 -43 -46 -67 -16 -33 41 27 46
28 109 1 142 -24 30 -26 63 -5 63 8 0 15 -4 15 -8z m-8750 -31 c7 -17 21 -32
33 -34 12 -2 1 -5 -25 -6 -43 -1 -48 2 -54 23 -12 51 26 64 46 17z m140 -17
c0 -8 -4 -12 -10 -9 -5 3 -10 13 -10 21 0 8 5 12 10 9 6 -3 10 -13 10 -21z
m8345 -2 c0 -18 -20 -15 -23 4 -3 10 1 15 10 12 7 -3 13 -10 13 -16z m-7020
-14 c-4 -13 -9 -63 -12 -113 -6 -108 14 -228 58 -348 56 -152 55 -146 33 -162
-29 -22 -130 -52 -219 -65 -44 -6 -126 -20 -183 -31 -57 -10 -108 -19 -113
-19 -19 0 -80 152 -105 258 -38 168 -37 171 52 262 90 93 149 126 339 190 77
27 144 48 149 49 4 1 5 -9 1 -21z m1978 5 c-7 -2 -19 -2 -25 0 -7 3 -2 5 12 5
14 0 19 -2 13 -5z m2664 -138 c30 -57 104 -122 177 -155 l63 -29 -4 -83 c-3
-46 -5 -86 -6 -90 -4 -16 -154 127 -189 180 -51 76 -98 209 -97 275 l0 52 18
-55 c10 -30 27 -73 38 -95z m2575 110 c0 -14 -29 -31 -38 -22 -9 8 16 39 28
35 5 -2 10 -8 10 -13z m198 -36 c0 -6 -4 -7 -10 -4 -5 3 -10 11 -10 16 0 6 5
7 10 4 6 -3 10 -11 10 -16z m-4535 -14 c-49 -23 -85 -32 -71 -17 9 8 96 40
111 40 6 0 -12 -10 -40 -23z m2389 -12 c4 -4 40 -6 79 -5 l72 3 -30 -22 c-43
-32 -175 -172 -175 -186 0 -6 -16 -32 -35 -57 -19 -26 -35 -56 -35 -69 0 -41
-21 -97 -35 -97 -8 0 -15 -9 -15 -20 0 -10 -8 -23 -17 -28 -15 -9 -15 -14 -4
-50 11 -33 11 -52 -1 -117 l-14 -78 -43 104 c-25 57 -47 109 -51 114 -4 6 -7
37 -6 71 2 48 10 78 43 147 42 86 108 171 144 182 10 4 19 13 19 21 0 14 77
94 91 94 3 0 9 -3 13 -7z m-6571 -48 c-3 -9 -8 -14 -10 -11 -3 3 -2 9 2 15 9
16 15 13 8 -4z m9077 -66 c-7 -16 -16 -29 -21 -29 -12 0 -12 3 8 52 12 30 19
37 21 25 2 -10 -2 -32 -8 -48z m-6045 30 c-51 -10 -181 -11 -171 -2 11 11 95
18 156 14 l55 -4 -40 -8z m953 7 c-7 -8 -15 -12 -17 -11 -5 6 10 25 20 25 5 0
4 -6 -3 -14z m2210 -84 l-3 -35 -32 27 c-18 15 -33 31 -33 34 0 4 10 23 22 42
l21 35 14 -34 c8 -18 13 -49 11 -69z m-2592 46 c3 -4 -2 -8 -10 -8 -8 0 -19
-6 -23 -13 -4 -7 -42 -23 -83 -35 -65 -19 -99 -22 -250 -22 -96 1 -221 5 -278
10 -105 9 -177 1 -118 -14 43 -11 23 -18 -28 -11 -25 4 -43 11 -40 16 3 5 -14
9 -38 9 -24 0 -74 3 -112 7 -63 6 -66 7 -45 19 28 15 120 32 239 43 111 11
779 10 786 -1z m-3285 -71 c-13 -16 -5 -27 21 -27 24 0 24 -38 1 -47 -10 -3
-27 -14 -38 -24 -29 -26 -93 -51 -100 -39 -10 16 -35 12 -35 -5 0 -9 7 -18 15
-21 8 -4 15 -12 15 -20 0 -20 -40 -17 -46 4 -17 50 -37 82 -52 83 -10 0 -12 3
-4 6 6 2 12 11 12 19 0 8 7 14 15 14 9 0 18 7 21 15 5 11 22 15 69 15 49 0 66
4 80 20 20 22 44 28 26 7z m4765 -44 c-3 -19 -226 -124 -248 -117 -10 3 -18 1
-18 -5 0 -6 -6 -11 -12 -11 -17 0 -15 54 2 75 15 18 114 71 169 90 29 10 42 9
72 -4 20 -9 36 -21 35 -28z m701 16 c240 -55 463 -251 548 -481 15 -40 82
-212 150 -383 127 -317 187 -479 232 -620 14 -44 47 -123 73 -175 47 -94 231
-546 291 -717 17 -48 43 -110 57 -138 22 -44 178 -417 234 -563 12 -29 18 -55
14 -59 -8 -8 -48 38 -67 77 -7 14 -20 33 -28 43 -8 9 -34 77 -58 150 -53 159
-83 237 -93 237 -4 0 -12 11 -18 25 -6 14 -18 25 -26 25 -8 0 -25 4 -38 9 -13
5 -27 9 -31 9 -4 1 -24 17 -45 37 -20 19 -54 40 -75 47 -28 8 -39 18 -43 37
-12 57 -23 72 -48 65 -17 -4 -28 1 -43 20 -21 27 -33 25 -33 -6 0 -13 -8 -18
-29 -18 -16 0 -38 -3 -48 -6 -15 -5 -15 -4 -3 5 8 5 12 13 9 16 -11 10 -37 -6
-42 -26 -3 -11 -14 -19 -25 -19 -21 0 -52 24 -52 41 0 5 -7 9 -16 9 -9 0 -14
-6 -12 -12 5 -13 -13 -26 -72 -54 -19 -9 -42 -23 -52 -31 -11 -9 -18 -11 -23
-4 -12 20 -36 11 -53 -18 -11 -20 -27 -32 -49 -36 -18 -3 -36 -12 -41 -20 -6
-11 -27 -15 -76 -16 -43 -1 -63 -4 -55 -10 9 -6 10 -9 2 -9 -7 0 -24 16 -39
35 -14 19 -30 35 -34 35 -4 0 -33 -24 -65 -54 -53 -49 -64 -54 -114 -59 -46
-4 -62 -1 -88 17 -18 11 -33 24 -33 27 0 4 -18 19 -40 34 -22 15 -40 34 -40
42 0 23 -41 72 -56 66 -8 -3 -14 0 -14 6 0 6 5 11 11 11 5 0 8 4 4 10 -3 5
-13 6 -22 3 -10 -4 -14 -2 -10 4 7 10 -69 86 -148 148 -27 21 -84 74 -126 117
-42 43 -81 78 -87 78 -7 0 -12 7 -12 15 0 9 -6 12 -17 8 -11 -4 -14 -3 -9 5 4
7 1 12 -7 12 -7 0 -24 11 -36 24 -13 13 -32 27 -43 30 -16 4 -12 -5 19 -37 22
-23 54 -61 72 -84 l32 -42 -24 -45 c-13 -25 -27 -43 -30 -39 -14 13 -27 -53
-25 -118 2 -38 6 -69 9 -69 3 0 13 -15 22 -34 17 -37 13 -105 -7 -118 -7 -5
-6 -8 4 -8 12 0 14 -10 11 -47 -2 -28 3 -59 11 -78 64 -130 68 -151 46 -212
-10 -27 -16 -32 -32 -27 -19 6 -20 5 -6 -11 14 -17 13 -18 -11 -12 -20 5 -33
1 -54 -19 -17 -15 -31 -22 -37 -16 -10 10 -58 4 -58 -8 0 -5 6 -10 13 -13 9
-3 7 -9 -5 -24 -21 -23 -23 -46 -5 -73 10 -17 9 -22 -3 -30 -23 -15 -30 -12
-48 20 -13 24 -24 30 -50 30 -26 0 -35 5 -43 28 -13 33 -4 98 18 131 14 22 14
25 -1 36 -20 15 -21 36 -1 29 10 -4 15 0 15 14 0 11 7 25 15 32 16 14 21 50 6
50 -11 0 -41 56 -41 76 0 8 -16 20 -35 28 -23 10 -35 22 -35 35 0 11 -3 26 -6
34 -3 8 2 21 10 30 34 33 20 52 -46 64 -53 10 -64 10 -71 -2 -4 -8 -18 -15
-31 -15 -23 0 -66 33 -66 51 0 5 -15 33 -34 62 -19 28 -44 85 -56 125 -16 51
-28 72 -39 72 -9 0 -54 18 -99 40 -46 23 -96 40 -115 40 -28 0 -43 10 -90 59
-32 33 -57 66 -57 74 0 8 -11 18 -24 21 -13 3 -26 14 -29 25 -3 14 -11 17 -31
14 -33 -7 -79 31 -71 58 3 10 -1 19 -10 23 -9 3 -15 18 -15 34 0 16 -3 31 -6
35 -3 3 -27 -3 -52 -14 -38 -17 -50 -18 -74 -8 -21 8 -27 17 -23 29 4 13 1 17
-11 16 -11 0 -20 8 -24 24 -3 14 -16 30 -29 36 -38 20 -43 29 -36 77 5 30 13
48 24 52 9 3 26 21 39 40 14 23 30 35 45 35 12 0 35 7 51 15 15 8 32 13 37 10
9 -6 55 36 51 48 -1 4 1 7 5 8 5 0 19 2 33 3 58 6 187 38 208 52 13 9 22 25
22 40 0 13 9 42 20 64 11 22 20 59 20 85 0 35 4 45 16 45 10 0 14 6 11 14 -4
10 -1 13 9 9 10 -3 12 0 8 10 -3 9 2 17 13 21 10 3 47 34 81 68 56 54 63 65
58 90 -3 15 -1 28 4 28 5 0 17 15 27 33 l17 32 12 -40 c11 -39 16 -38 28 10 3
11 3 -12 0 -51 -5 -76 15 -239 42 -336 25 -88 33 -69 11 25 -35 150 -25 474
20 612 38 118 166 294 273 377 257 198 610 278 917 207z m-5777 13 c0 -5 11
-14 25 -20 45 -21 29 -54 -29 -57 -21 -1 -36 6 -52 24 -32 36 -30 44 12 36 31
-5 36 -4 31 9 -4 9 -2 16 3 16 6 0 10 -4 10 -8z m2513 1 c-7 -2 -19 -2 -25 0
-7 3 -2 5 12 5 14 0 19 -2 13 -5z m47 -3 c0 -5 -2 -10 -4 -10 -3 0 -8 5 -11
10 -3 6 -1 10 4 10 6 0 11 -4 11 -10z m47 4 c-3 -3 -12 -4 -19 -1 -8 3 -5 6 6
6 11 1 17 -2 13 -5z m138 -4 c-3 -6 5 -10 19 -10 14 0 28 -4 31 -10 4 -6 -30
-9 -97 -9 -75 1 -92 4 -63 9 22 4 30 8 18 9 -13 0 -23 5 -23 10 0 5 27 9 60
10 37 0 59 -3 55 -9z m213 -48 c28 -11 66 -32 84 -48 l33 -27 -70 6 c-44 4
-63 3 -50 -3 11 -5 34 -9 51 -9 37 -1 75 -17 163 -69 61 -35 76 -52 51 -60 -6
-2 -9 2 -8 8 2 7 -3 15 -11 18 -8 3 -11 0 -7 -7 5 -8 0 -8 -19 -1 -15 6 -93
22 -173 36 -182 33 -439 38 -561 10 -97 -21 -316 -85 -469 -136 -68 -23 -131
-40 -140 -38 -19 4 216 123 318 161 162 61 544 147 653 147 60 0 72 9 35 29
-39 19 60 6 120 -17z m4008 -85 c-3 -13 -29 -53 -57 -88 -52 -65 -124 -202
-114 -218 2 -5 10 -43 15 -84 11 -76 43 -169 80 -229 11 -18 20 -48 20 -67 0
-41 49 -130 91 -165 39 -33 102 -50 159 -42 54 8 72 24 74 68 1 42 9 47 58 36
45 -10 66 -3 24 8 -14 3 -26 7 -26 9 0 1 18 20 39 42 49 48 59 82 36 117 -22
33 -64 44 -129 35 -127 -18 -200 -7 -236 37 -13 15 -10 20 25 51 95 81 182
113 242 88 18 -8 33 -10 33 -6 0 14 -65 41 -97 41 -44 0 -128 -28 -184 -61
-27 -16 -54 -29 -59 -29 -15 0 -12 60 5 117 15 51 87 168 143 233 l29 35 90
-43 c49 -23 104 -47 123 -53 31 -9 243 -49 262 -49 4 0 5 -8 1 -17 -6 -16 -4
-16 15 1 18 16 31 18 84 12 215 -23 283 -94 281 -296 0 -109 -21 -174 -85
-277 -37 -58 -85 -109 -95 -99 -3 2 0 21 6 43 44 163 51 245 25 298 -12 26
-13 26 -8 5 26 -117 2 -182 -99 -256 -121 -90 -225 -127 -400 -145 -138 -14
-235 -6 -303 25 -132 61 -252 230 -284 402 -5 27 -14 74 -21 104 -17 81 -7
175 24 237 32 61 104 155 155 200 32 27 39 30 51 18 8 -8 11 -23 7 -38z m1404
-4 c-1 -19 -16 -31 -29 -24 -7 5 -10 14 -7 20 8 12 36 15 36 4z m70 -73 c0 -5
-5 -10 -11 -10 -5 0 -7 5 -4 10 3 6 8 10 11 10 2 0 4 -4 4 -10z m-5737 -7 c-7
-2 -19 -2 -25 0 -7 3 -2 5 12 5 14 0 19 -2 13 -5z m204 1 c-7 -7 -179 -5 -186
2 -2 2 40 4 94 4 54 0 95 -3 92 -6z m70 -10 c-3 -3 -12 -4 -19 -1 -8 3 -5 6 6
6 11 1 17 -2 13 -5z m40 -10 c-3 -3 -12 -4 -19 -1 -8 3 -5 6 6 6 11 1 17 -2
13 -5z m71 -24 c10 -17 10 -20 -3 -20 -8 0 -15 5 -15 10 0 6 -15 10 -32 10
-25 0 -29 3 -18 10 24 16 54 11 68 -10z m-1460 -50 c5 0 8 -9 5 -19 -3 -13 1
-20 13 -23 12 -2 2 -13 -35 -36 -29 -18 -57 -29 -63 -26 -6 4 -8 2 -5 -3 4 -6
-16 -20 -46 -33 -28 -12 -71 -31 -94 -41 -23 -11 -45 -19 -49 -19 -4 0 -44
-16 -89 -35 -65 -28 -87 -34 -106 -26 -17 7 -19 10 -6 10 9 1 17 3 17 5 0 2 3
11 6 20 4 11 -3 19 -22 27 -16 6 -24 13 -17 16 7 2 10 10 7 17 -3 7 2 13 9 13
24 0 77 25 72 33 -3 5 11 14 32 21 20 6 83 34 140 61 61 30 120 51 143 52 22
1 43 6 47 10 4 4 13 0 19 -8 6 -9 16 -16 22 -16z m7382 -4 c0 -21 -21 -31 -30
-15 -5 7 -6 17 -4 21 9 14 34 9 34 -6z m-5740 -12 c0 -14 -3 -14 -15 -4 -8 7
-15 14 -15 16 0 2 7 4 15 4 8 0 15 -7 15 -16z m-3330 -38 c6 -8 10 -25 8 -38
-2 -17 -10 -23 -28 -23 -22 0 -25 5 -28 38 -3 31 0 37 16 37 11 0 25 -7 32
-14z m-282 -42 c2 -11 -3 -26 -11 -32 -18 -15 -52 19 -43 43 9 24 50 15 54
-11z m522 -30 c0 -8 -4 -12 -10 -9 -5 3 -10 13 -10 21 0 8 5 12 10 9 6 -3 10
-13 10 -21z m4308 -52 c-2 -8 -9 -17 -16 -20 -8 -2 -10 2 -5 14 4 12 3 15 -5
10 -8 -4 -10 -2 -6 8 7 19 36 8 32 -12z m3822 -50 c0 -13 -12 -22 -22 -16 -10
6 -1 24 13 24 5 0 9 -4 9 -8z m-6240 -22 c-8 -5 -24 -9 -35 -9 l-20 0 20 9
c11 5 27 9 35 9 13 1 13 0 0 -9z m1616 -14 c17 -17 19 -82 3 -92 -7 -4 -10 -1
-7 7 3 8 -1 33 -8 56 -14 46 -11 52 12 29z m-2437 -44 c-24 -26 -58 -65 -76
-85 -17 -20 -38 -37 -47 -37 -13 0 -12 7 6 48 22 50 42 71 98 102 59 32 65 22
19 -28z m2397 -100 c5 -21 0 -18 -23 18 -46 70 -48 77 -14 42 17 -18 34 -45
37 -60z m-836 39 c38 -17 77 -29 87 -29 19 2 122 -59 208 -123 48 -35 125
-111 96 -94 -11 6 -13 4 -8 -8 3 -10 2 -17 -4 -17 -6 0 -7 -5 -3 -12 8 -13
-10 -3 -38 21 -97 85 -343 185 -519 212 -52 8 -75 15 -63 20 15 5 11 8 -16 12
-19 3 -60 10 -90 15 l-55 9 85 2 c47 0 112 -3 144 -9 65 -10 83 -6 65 16 -20
24 35 17 111 -15z m-1327 -53 c-4 -7 -27 -41 -50 -75 -77 -110 -143 -287 -143
-385 0 -21 -4 -38 -10 -38 -5 0 -10 13 -10 29 0 29 -14 49 -23 34 -5 -7 7
-149 15 -183 2 -9 -4 -15 -17 -15 -14 0 -20 7 -20 25 0 18 -5 24 -18 22 -10
-2 -20 5 -23 15 -3 10 -10 26 -15 35 -12 23 -12 88 0 88 5 0 13 15 17 32 9 43
35 98 57 122 9 11 17 24 17 30 0 5 3 6 7 3 3 -4 12 1 19 11 12 16 13 15 23 -8
5 -14 10 -20 10 -13 1 6 4 19 8 29 5 13 3 15 -8 10 -8 -5 -8 -2 2 6 9 7 25 31
37 53 23 45 120 185 128 185 3 0 2 -6 -3 -12z m5858 -17 c30 -24 19 -47 -32
-73 -55 -29 -145 -19 -198 21 -22 17 -21 18 76 43 122 32 126 32 154 9z m1053
3 c9 -24 7 -54 -4 -54 -14 0 -31 37 -24 54 8 20 20 20 28 0z m-4611 -84 c4
-30 3 -38 -3 -25 -8 19 -14 83 -6 74 2 -2 6 -24 9 -49z m4257 -70 c-41 -254
-248 -540 -516 -710 -55 -34 -271 -122 -359 -145 -68 -17 -173 -20 -227 -5
-72 20 -114 80 -142 203 -8 33 -5 33 94 7 128 -34 223 -26 410 31 106 32 128
44 325 179 166 114 236 175 287 254 57 88 46 95 -29 19 -60 -60 -176 -134
-189 -120 -2 2 32 33 77 68 112 88 177 162 224 258 35 70 41 77 48 58 5 -13 4
-54 -3 -97z m-4513 -10 c-7 -8 -22 -23 -34 -33 -13 -10 -23 -27 -23 -37 0 -21
23 -43 36 -32 4 4 2 -1 -5 -10 -12 -16 -9 -22 12 -19 10 1 9 -17 -2 -23 -5 -4
-11 -1 -13 6 -3 8 -18 4 -49 -14 -52 -30 -104 -28 -112 4 -4 14 -1 18 8 14 9
-3 12 0 8 10 -3 7 -11 14 -19 14 -17 0 -19 20 -1 21 9 0 9 2 0 6 -18 7 75 119
96 115 12 -2 13 -1 3 6 -11 7 -9 16 7 43 l21 34 -7 -35 c-6 -32 -5 -34 10 -21
9 7 17 9 17 4 0 -13 -22 -39 -45 -53 -17 -10 -17 -11 -2 -6 11 3 31 9 45 12
26 5 26 5 8 -10 -17 -14 -17 -16 -4 -16 22 0 33 19 19 33 -14 14 -15 47 -1 47
6 0 10 15 11 33 1 26 3 22 14 -23 10 -42 11 -59 2 -70z m279 34 c-4 -15 -3
-23 3 -20 5 3 11 -1 15 -9 3 -8 -3 -19 -13 -25 -16 -8 -20 -5 -24 18 -3 15 -1
29 4 30 5 2 9 10 9 18 0 8 3 14 6 14 3 0 3 -12 0 -26z m3314 -50 c0 -6 10 -16
23 -23 27 -14 53 -51 36 -51 -29 0 -109 84 -109 115 0 11 49 -30 50 -41z
m-5445 -6 c-22 -23 -42 -45 -45 -48 -3 -3 -16 -18 -28 -34 -29 -38 -28 -26 3
32 14 26 25 52 25 59 0 11 41 31 70 32 8 1 -3 -17 -25 -41z m5452 -77 c-18 -7
-55 22 -76 59 -32 57 -26 56 32 -2 28 -29 48 -55 44 -57z m-3201 87 c4 -6 2
-14 -5 -16 -37 -12 -107 -113 -102 -147 2 -13 -1 -17 -7 -10 -6 6 -13 30 -17
56 -7 44 -6 46 33 73 22 15 43 34 46 42 7 17 42 19 52 2z m-236 -80 c0 -23 -3
-29 -9 -19 -8 12 -4 51 5 51 2 0 4 -15 4 -32z m-943 -28 c137 -23 254 -73 262
-115 3 -16 1 -17 -11 -7 -17 14 -29 6 -22 -13 4 -11 -20 -12 -125 -9 -94 3
-143 0 -173 -10 -24 -8 -86 -22 -138 -31 -174 -33 -315 -91 -435 -180 -145
-108 -225 -214 -241 -320 -3 -25 -9 -43 -13 -40 -4 2 -15 -12 -24 -31 -15 -30
-20 -33 -37 -24 -10 6 -24 18 -29 28 -9 15 -11 15 -19 -7 l-9 -24 -16 24 c-9
13 -17 33 -18 44 0 16 -3 14 -14 -10 -12 -26 -14 -27 -15 -8 0 31 29 153 45
183 7 14 23 47 36 74 24 49 36 60 63 54 12 -2 10 -13 -10 -63 -34 -83 -25 -91
18 -14 45 81 105 150 127 147 10 -2 15 4 14 15 0 10 1 16 4 13 3 -3 16 8 30
25 14 16 31 29 39 29 17 0 65 40 59 50 -3 4 3 7 13 6 9 0 16 5 14 12 -1 8 2
11 7 8 5 -4 16 3 24 14 9 14 21 18 33 14 16 -5 16 -4 4 5 -13 9 -12 12 5 24
10 8 25 13 32 10 7 -3 13 -1 13 4 0 6 18 18 40 28 22 10 40 22 40 27 0 4 7 8
15 8 12 0 12 -3 -3 -18 -23 -23 -98 -62 -119 -62 -13 0 -14 -3 -5 -12 9 -9 20
-7 49 8 49 25 124 80 123 90 -2 12 95 43 160 53 79 12 136 12 207 1z m809 -76
c-4 -9 -9 -15 -11 -12 -3 3 -3 13 1 22 4 9 9 15 11 12 3 -3 3 -13 -1 -22z
m-2026 -39 c0 -12 -19 -12 -23 0 -4 9 -1 12 9 8 7 -3 14 -7 14 -8z m2010 12
c0 -2 -10 -12 -22 -23 l-23 -19 19 23 c18 21 26 27 26 19z m498 -44 c3 -18 -4
-24 -34 -32 -44 -12 -54 -8 -47 20 11 40 76 50 81 12z m2897 7 c13 -6 15 -9 5
-9 -8 0 -22 4 -30 9 -18 12 -2 12 25 0z m-3113 -15 c0 -5 -5 -11 -11 -13 -6
-2 -11 4 -11 13 0 9 5 15 11 13 6 -2 11 -8 11 -13z m3233 -25 c33 -10 75 -21
93 -25 18 -4 30 -10 28 -13 -2 -4 10 -8 27 -9 18 -1 43 -5 57 -9 l25 -7 -30
-13 c-16 -7 -37 -13 -45 -13 -8 0 -3 6 12 13 24 10 13 11 -67 8 -92 -4 -95 -4
-95 17 0 18 -4 20 -24 15 -17 -4 -30 0 -45 15 -12 12 -15 21 -8 24 6 2 4 6 -6
10 -9 3 -17 2 -17 -3 0 -6 -8 -10 -17 -10 -15 0 -14 2 3 15 10 8 26 12 34 9 8
-3 42 -14 75 -24z m-25 -70 c-8 -6 -22 -10 -30 -10 -8 0 -4 6 10 13 27 15 44
12 20 -3z m104 -20 c81 0 67 -6 -29 -13 -44 -2 -74 -3 -66 0 11 5 11 7 0 15
-10 7 -7 8 11 4 14 -3 52 -6 84 -6z m-3285 -9 c-14 -5 -36 -14 -50 -21 -28
-16 -125 -31 -145 -23 -40 15 10 32 115 39 29 1 56 5 59 8 3 4 15 6 26 5 18
-1 17 -2 -5 -8z m3164 2 c-7 -2 -21 -2 -30 0 -10 3 -4 5 12 5 17 0 24 -2 18
-5z m-3108 -14 c11 -17 -1 -21 -15 -4 -8 9 -8 15 -2 15 6 0 14 -5 17 -11z m50
2 c3 -5 1 -12 -4 -15 -5 -3 -11 1 -15 9 -6 16 9 21 19 6z m-3837 -104 c4 -41
-4 -45 -48 -22 -36 19 -40 52 -7 58 43 9 52 3 55 -36z m2572 -167 c18 -9 16
-13 -23 -51 -42 -40 -42 -41 -13 -34 17 3 36 14 43 23 9 12 12 13 13 3 0 -17
-56 -123 -78 -148 -10 -10 -30 -37 -46 -60 -29 -44 -119 -120 -146 -123 -42
-6 -42 2 -3 43 75 79 133 157 133 182 0 17 4 23 14 19 14 -5 33 32 22 43 -3 3
3 18 12 32 10 14 23 38 30 54 13 30 15 31 42 17z m-156 -126 c8 -20 -27 -83
-58 -106 -23 -17 -23 -16 -16 10 13 51 43 112 55 112 7 0 16 -7 19 -16z m776
-35 c0 -11 -5 -30 -12 -42 -29 -55 5 -137 70 -164 29 -12 46 -12 104 -2 81 15
91 9 94 -54 4 -71 67 -187 101 -187 7 0 25 -8 40 -17 24 -16 26 -16 42 3 13
16 23 18 50 13 19 -4 40 -5 48 -2 17 7 45 -16 39 -32 -2 -7 4 -31 14 -53 14
-30 25 -42 40 -42 12 0 48 -13 82 -30 33 -17 68 -30 78 -30 9 0 29 -9 43 -20
14 -11 38 -20 54 -20 32 0 102 -41 145 -84 53 -54 49 -96 -12 -138 -45 -31
-51 -57 -20 -88 22 -22 78 -27 110 -10 15 8 24 6 41 -11 l21 -21 -35 -37 c-44
-47 -67 -107 -67 -180 0 -65 0 -65 -97 -117 -76 -40 -79 -38 -170 99 -98 147
-165 225 -275 318 -142 120 -290 195 -563 283 -125 40 -215 81 -215 97 0 4 24
19 54 32 30 14 82 44 116 67 69 47 94 88 79 129 -10 24 -36 50 -53 51 -5 0 3
-9 18 -21 80 -63 -39 -164 -266 -222 -53 -14 -118 -28 -145 -31 l-48 -6 46 23
c25 12 80 44 123 71 105 66 119 94 120 238 1 104 2 107 31 138 17 18 44 39 60
47 17 9 45 29 63 44 39 34 52 36 52 8z m-3339 -84 c11 -31 29 -45 64 -50 6 -1
15 -3 20 -4 6 -1 3 -6 -5 -11 -12 -8 -11 -11 8 -16 17 -5 22 -12 19 -25 -3
-11 -1 -19 5 -19 5 0 6 -5 3 -11 -5 -7 -13 -5 -25 6 -20 18 -25 14 -35 -32 -9
-46 -19 -48 -50 -11 -28 33 -28 30 -9 135 5 23 1 36 -15 52 -15 15 -17 21 -7
21 8 0 20 -16 27 -35z m367 -12 c5 -10 7 -24 5 -30 -3 -7 0 -13 7 -13 6 0 8
-4 5 -10 -3 -5 -15 -10 -26 -10 -10 0 -19 -6 -19 -14 0 -27 -96 -43 -124 -22
-22 18 -17 24 63 79 60 41 76 45 89 20z m1642 7 c0 -5 -9 -10 -21 -10 -11 0
-17 5 -14 10 3 6 13 10 21 10 8 0 14 -4 14 -10z m-575 -39 c3 -5 2 -12 -3 -15
-5 -3 -9 1 -9 9 0 17 3 19 12 6z m6519 -23 c22 -83 29 -121 30 -165 2 -52 1
-52 -41 -74 -24 -12 -43 -26 -43 -31 0 -4 -4 -8 -10 -8 -5 0 -10 15 -10 33
l-1 32 -14 -25 c-8 -14 -14 -33 -15 -43 0 -9 -9 -25 -20 -34 -11 -10 -20 -24
-20 -31 0 -9 -7 -12 -20 -9 -11 3 -23 1 -26 -4 -10 -16 -44 -10 -45 9 -3 58 5
120 18 147 65 125 203 255 217 203z m-6574 -53 c-24 -25 -46 -45 -48 -45 -1 0
14 20 35 45 20 25 42 45 47 45 6 0 -10 -20 -34 -45z m1564 -1 c-27 -25 -66
-56 -89 -69 -57 -33 -188 -72 -270 -80 -63 -6 -68 -5 -50 8 11 8 45 20 75 27
78 18 189 57 218 76 13 9 36 18 50 20 15 3 31 12 35 20 4 8 13 14 18 14 6 0
17 7 25 15 9 8 20 15 25 15 6 0 -11 -21 -37 -46z m4611 -44 c3 -5 1 -10 -4
-10 -6 0 -11 5 -11 10 0 6 2 10 4 10 3 0 8 -4 11 -10z m25 -40 c9 -16 8 -18
-5 -14 -8 4 -15 12 -15 20 0 20 7 17 20 -6z m-7860 0 c13 -9 13 -11 0 -20 -20
-13 -27 -12 -36 2 -5 8 -2 9 11 4 15 -5 16 -4 5 9 -14 17 -3 20 20 5z m3185
-82 c-8 -28 -53 -70 -66 -63 -16 10 -33 -6 -18 -17 11 -7 9 -8 -4 -4 -10 3
-25 6 -33 6 -8 0 -13 6 -11 13 2 13 -9 13 -58 3 -37 -8 -25 -2 90 47 99 43
108 44 100 15z m-915 -167 c0 -12 -37 -24 -50 -16 -5 3 -20 1 -32 -5 -21 -10
-21 -10 2 9 25 21 80 29 80 12z m-1260 -173 c19 1 30 -2 25 -6 -24 -17 2 -86
28 -77 7 3 19 1 27 -5 23 -14 27 -159 5 -216 -20 -52 -31 -56 -43 -12 -11 43
-34 47 -49 8 -13 -34 -29 -39 -38 -11 -3 10 -14 29 -25 41 -16 19 -21 20 -25
7 -4 -8 -5 -21 -4 -28 10 -48 -35 -95 -66 -69 -28 23 -48 97 -41 150 9 65 15
80 33 80 11 0 13 7 9 28 -5 22 2 35 40 75 37 40 49 48 67 42 12 -4 38 -7 57
-7z m2119 -23 c-3 -2 -62 -9 -133 -14 -117 -10 -277 -45 -284 -62 -3 -7 -8 -7
-49 7 -17 5 -17 6 0 15 49 28 225 58 346 58 68 1 122 -1 120 -4z m68 -1 c-3
-3 -12 -4 -19 -1 -8 3 -5 6 6 6 11 1 17 -2 13 -5z m283 -10 c0 -2 -7 -4 -15
-4 -8 0 -15 4 -15 10 0 5 7 7 15 4 8 -4 15 -8 15 -10z m420 -59 c115 -59 228
-136 291 -202 72 -75 92 -101 138 -185 33 -59 37 -73 21 -63 -6 3 -7 -1 -4 -9
8 -21 -10 -20 -27 1 -32 39 -279 259 -337 301 -35 25 -119 74 -185 108 -98 51
-116 64 -92 64 22 0 26 3 16 9 -8 5 -16 18 -18 29 -2 19 -1 19 70 -3 39 -12
97 -34 127 -50z m1961 58 c13 -16 12 -17 -3 -4 -17 13 -22 21 -14 21 2 0 10
-8 17 -17z m-4803 -18 c-3 -3 -9 2 -12 12 -6 14 -5 15 5 6 7 -7 10 -15 7 -18z
m2179 19 c-3 -3 -12 -4 -19 -1 -8 3 -5 6 6 6 11 1 17 -2 13 -5z m-147 -34 c0
-5 -15 -9 -32 -9 l-33 1 30 8 c17 4 31 8 33 9 1 0 2 -3 2 -9z m43 3 c-7 -2
-19 -2 -25 0 -7 3 -2 5 12 5 14 0 19 -2 13 -5z m-130 -20 c-13 -2 -35 -2 -50
0 -16 2 -5 4 22 4 28 0 40 -2 28 -4z m4053 -9 c-3 -9 -6 -23 -6 -32 0 -12 -3
-13 -11 -5 -13 13 -3 53 13 53 5 0 7 -7 4 -16z m-5758 -3 c9 -5 30 -13 47 -18
34 -10 47 -42 18 -44 -16 -1 -16 -2 -1 -6 10 -2 15 -10 11 -19 -3 -7 -9 -11
-14 -8 -5 3 -9 -1 -9 -10 0 -8 5 -16 12 -18 12 -4 -29 -58 -44 -58 -5 0 -25
-12 -45 -27 -34 -26 -35 -27 -29 -5 10 29 -5 28 -54 -3 -38 -24 -40 -24 -40
-5 0 11 -4 20 -9 20 -4 0 -11 36 -15 80 -5 64 -4 84 8 95 8 8 21 13 28 10 8
-3 28 1 44 10 33 17 66 19 92 6z m1572 -1 c-14 -4 -34 -8 -45 -8 -16 0 -15 2
5 8 14 4 34 8 45 8 16 0 15 -2 -5 -8z m-90 -20 c-18 -12 -30 -13 -30 -2 0 4
10 9 22 9 18 2 20 0 8 -7z m-43 -16 c-3 -3 -12 -4 -19 -1 -8 3 -5 6 6 6 11 1
17 -2 13 -5z m4247 0 c9 -3 16 -13 16 -21 0 -10 7 -14 20 -10 13 3 20 0 20
-10 0 -8 -5 -11 -11 -7 -7 4 -9 0 -5 -13 4 -12 -4 -35 -23 -64 -16 -24 -33
-62 -36 -84 -7 -39 -21 -65 -34 -65 -4 0 -25 17 -48 38 -69 63 -92 141 -49
166 11 6 33 26 49 44 29 32 63 41 101 26z m694 -23 c-15 -21 -28 -19 -28 5 0
7 8 14 18 16 24 6 26 2 10 -21z m-6248 -11 c0 -16 -4 -30 -10 -30 -11 0 -14
43 -3 53 11 12 13 8 13 -23z m2232 4 c43 -11 64 -12 71 -5 8 8 7 11 -3 11 -7
0 -11 2 -9 5 8 7 98 -28 167 -67 105 -58 178 -116 285 -228 135 -141 190 -213
182 -238 -4 -14 -12 -18 -25 -15 -14 4 -20 0 -20 -11 0 -9 -6 -16 -14 -16 -8
0 -18 -4 -21 -10 -4 -6 1 -7 12 -3 15 6 16 5 3 -9 -13 -13 -19 -11 -55 22
-114 106 -337 250 -627 405 -89 47 -112 64 -132 98 -14 22 -23 44 -20 49 7 12
64 26 108 27 21 1 65 -6 98 -15z m4741 -17 c37 -19 39 -21 33 -61 -8 -56 5
-75 33 -47 29 29 32 26 15 -9 -9 -16 -23 -30 -33 -30 -9 0 -23 -6 -30 -12 -10
-11 -11 -7 -7 17 4 17 3 24 0 18 -8 -18 -44 -16 -44 2 0 9 -8 19 -17 22 -10 4
-25 16 -35 28 -9 11 -19 17 -22 14 -4 -3 12 -25 35 -48 45 -45 46 -64 4 -83
-22 -10 -29 -8 -53 15 -15 14 -45 33 -67 42 -38 17 -40 16 -57 -5 -10 -12 -22
-19 -27 -15 -13 8 -58 -21 -93 -60 -19 -22 -25 -37 -21 -54 l6 -24 -27 19
c-24 17 -26 24 -23 66 3 36 0 50 -15 62 -13 12 -17 24 -13 39 11 35 36 49 75
42 30 -5 40 -2 60 19 14 16 34 26 51 26 15 0 39 4 52 9 20 8 27 6 32 -7 5 -14
8 -12 18 8 21 43 96 46 170 7z m-6983 -37 c0 -5 -4 -10 -10 -10 -5 0 -10 5
-10 10 0 6 5 10 10 10 6 0 10 -4 10 -10z m1956 -60 c12 0 26 -4 29 -10 3 -5
15 -10 26 -10 10 0 19 -3 19 -7 0 -11 51 -33 61 -27 11 6 175 -76 236 -118 47
-31 117 -95 93 -84 -8 4 -4 -3 10 -16 14 -14 30 -33 36 -44 6 -10 18 -19 27
-19 9 0 19 -4 24 -9 5 -5 2 -6 -6 -1 -9 5 -12 3 -9 -6 3 -8 13 -13 22 -13 10
1 15 0 12 -3 -3 -3 6 -17 20 -32 37 -39 44 -54 29 -68 -10 -9 -22 -3 -54 30
-23 22 -41 47 -41 54 0 7 -4 13 -10 13 -15 0 -12 -19 8 -40 9 -10 25 -34 36
-52 13 -23 -6 -8 -63 50 -46 45 -128 116 -184 157 -56 42 -109 88 -117 102 -9
14 -30 34 -49 44 -47 25 -51 32 -12 24 23 -5 31 -4 27 4 -4 6 -20 11 -35 11
-15 0 -31 3 -35 8 -4 4 -11 7 -14 8 -48 4 -117 29 -140 52 -7 6 -20 12 -28 12
-8 0 -14 5 -14 10 0 6 15 4 36 -5 20 -8 47 -15 60 -15z m-180 -44 c112 -28
203 -60 284 -101 66 -34 54 -42 -30 -20 -100 26 -79 11 26 -18 134 -38 160
-52 234 -128 61 -62 158 -214 115 -179 -17 14 -18 14 -6 -9 10 -17 10 -26 1
-35 -8 -8 -10 -7 -5 7 8 20 -8 23 -24 4 -6 -8 -43 -27 -83 -42 -40 -16 -84
-38 -98 -50 -24 -21 -55 -32 -147 -55 -23 -6 -45 -15 -48 -20 -3 -6 -16 -10
-28 -10 -13 0 -31 -6 -42 -14 -11 -7 -51 -17 -90 -21 -38 -4 -76 -12 -82 -17
-8 -6 -35 -8 -68 -3 -89 11 -95 5 -88 -70 l6 -63 -42 -26 c-26 -17 -49 -24
-64 -21 -12 3 -35 7 -52 9 -16 2 -38 7 -47 11 -11 4 -23 1 -33 -9 -12 -12 -22
-13 -41 -6 -33 13 -34 13 -34 -5 0 -8 -6 -15 -14 -15 -13 0 -14 34 -1 88 3 13
1 30 -5 37 -15 18 8 71 43 105 35 33 34 41 -4 27 -21 -8 -37 -24 -46 -45 -7
-18 -21 -36 -29 -39 -20 -8 -36 16 -29 43 3 13 -2 27 -11 34 -9 8 -14 25 -12
43 4 38 -22 58 -46 34 -9 -8 -16 -20 -16 -25 0 -5 -6 -15 -14 -21 -25 -21 -27
6 -4 44 17 30 19 41 10 56 -7 10 -12 42 -12 71 0 81 -8 98 -41 98 -15 0 -32 6
-36 13 -4 6 -17 17 -28 23 -27 15 -31 41 -8 67 19 23 23 44 10 63 -4 7 0 15 9
18 14 5 14 9 3 23 -12 14 -12 16 1 11 8 -2 30 10 49 27 51 48 128 92 196 111
142 39 358 39 521 0z m3569 4 c0 -9 -11 -16 -27 -18 -16 -2 -28 -8 -28 -13 0
-5 -8 -9 -19 -9 -12 0 -20 9 -23 24 -4 21 0 26 21 29 47 8 76 3 76 -13z m-125
-30 c0 -5 -4 -10 -9 -10 -6 0 -13 5 -16 10 -3 6 1 10 9 10 9 0 16 -4 16 -10z
m1765 -20 c-3 -5 -10 -10 -16 -10 -5 0 -9 5 -9 10 0 6 7 10 16 10 8 0 12 -4 9
-10z m-7163 -20 c19 -11 41 -17 54 -14 28 7 79 -21 92 -50 14 -32 -8 -106 -39
-128 -25 -19 -27 -19 -92 -2 -80 22 -90 38 -52 89 19 24 25 40 20 52 -5 10 -7
23 -6 29 1 7 -6 14 -14 18 -9 3 -13 10 -10 16 8 13 9 13 47 -10z m268 0 c0 -5
-5 -10 -11 -10 -5 0 -7 5 -4 10 3 6 8 10 11 10 2 0 4 -4 4 -10z m5510 -10 c0
-5 -4 -10 -9 -10 -6 0 -13 5 -16 10 -3 6 1 10 9 10 9 0 16 -4 16 -10z m305
-80 c16 -15 31 -21 47 -17 22 6 23 4 20 -38 -3 -31 -9 -45 -19 -45 -8 0 -11
-5 -8 -10 4 -6 11 -8 16 -5 14 9 11 -13 -7 -40 -10 -15 -22 -22 -32 -19 -14 5
-14 3 1 -6 14 -9 23 -8 43 5 24 16 27 15 47 -2 12 -10 23 -18 24 -18 1 0 -3
-21 -8 -47 -7 -32 -16 -48 -30 -51 -28 -8 -23 -27 11 -38 17 -6 30 -12 30 -13
0 -8 -63 -127 -69 -130 -4 -3 -24 0 -43 6 -31 9 -40 8 -66 -11 -17 -11 -41
-21 -54 -21 -21 1 -88 51 -88 67 0 12 63 73 76 73 6 0 17 7 24 15 10 12 10 15
-3 15 -36 0 -53 96 -19 106 34 11 47 22 44 38 -2 9 2 16 8 16 7 0 10 13 8 32
-2 25 -9 33 -32 39 -17 5 -40 20 -53 34 -13 14 -28 25 -33 25 -14 0 -12 44 2
58 22 22 134 9 163 -18z m-6335 0 c8 12 10 12 10 1 0 -7 6 -11 15 -7 9 3 15 0
15 -9 0 -8 8 -19 19 -24 23 -13 35 -51 16 -51 -8 0 -11 -8 -8 -20 4 -14 0 -20
-11 -20 -9 0 -16 -4 -16 -8 0 -13 -47 -32 -78 -32 -43 0 -56 13 -42 40 8 15 9
25 2 32 -12 12 1 54 25 80 9 10 13 18 9 18 -4 0 -4 5 0 12 5 7 11 5 21 -8 12
-16 15 -17 23 -4z m-139 -13 c-1 -12 -15 -9 -19 4 -3 6 1 10 8 8 6 -3 11 -8
11 -12z m6574 3 c3 -5 1 -10 -4 -10 -6 0 -11 5 -11 10 0 6 2 10 4 10 3 0 8 -4
11 -10z m-515 -35 c0 -8 -2 -15 -4 -15 -2 0 -6 7 -10 15 -3 8 -1 15 4 15 6 0
10 -7 10 -15z m-6024 -16 c9 -15 -23 -10 -35 5 -10 12 -8 13 9 9 11 -3 23 -9
26 -14z m4590 1 c8 0 14 -6 14 -14 0 -8 6 -16 13 -19 9 -3 9 -7 0 -18 -6 -8
-13 -25 -15 -39 -2 -18 -10 -26 -29 -28 -38 -4 -56 21 -41 61 8 21 8 35 2 41
-20 20 -9 28 16 11 26 -16 26 -16 20 7 -3 12 -3 17 0 11 3 -7 12 -13 20 -13z
m-4726 -15 c14 -8 19 -14 12 -15 -7 0 -10 -4 -7 -10 3 -5 30 -10 60 -10 30 0
57 -4 60 -10 3 -5 0 -10 -8 -10 -42 0 -96 -48 -81 -72 4 -6 -1 -8 -12 -5 -11
3 -35 8 -55 11 -38 7 -109 64 -109 88 0 8 10 24 21 37 18 19 28 22 58 16 19
-4 47 -13 61 -20z m6793 -17 c8 -30 0 -36 -18 -12 -18 24 -19 34 -1 34 7 0 16
-10 19 -22z m-6286 -56 c16 -25 20 -41 16 -75 -7 -53 -37 -112 -66 -131 -26
-18 -142 -27 -156 -13 -7 7 -15 7 -23 0 -18 -13 -56 -14 -102 -2 -52 14 -141
85 -141 113 0 20 4 21 115 21 63 0 121 -4 128 -9 8 -6 12 -1 12 17 0 34 18 46
67 41 41 -4 43 -2 51 28 5 22 16 35 33 39 34 10 41 7 66 -29z m6193 24 c0 -3
-4 -8 -10 -11 -5 -3 -10 -1 -10 4 0 6 5 11 10 11 6 0 10 -2 10 -4z m-5050 -78
c0 -16 -3 -19 -11 -11 -6 6 -8 16 -5 22 11 17 16 13 16 -11z m4680 -8 c-8 -5
-17 -7 -19 -4 -3 3 1 9 9 14 8 5 17 7 19 4 3 -3 -1 -9 -9 -14z m-6643 -16 c-7
-7 -37 7 -37 17 0 6 9 5 21 -1 11 -7 19 -14 16 -16z m1923 -63 c0 -11 -6 -9
-19 9 -11 13 -17 29 -14 34 8 11 33 -22 33 -43z m4278 33 c38 -11 22 -64 -20
-64 -10 0 -28 -10 -40 -22 l-22 -22 -6 23 c-5 20 -15 30 -49 48 -1 1 0 7 4 13
5 8 11 6 19 -6 11 -14 16 -15 37 -3 13 8 28 20 32 27 9 14 13 14 45 6z m-1093
-34 c-3 -5 -18 -9 -33 -9 l-27 1 30 8 c17 4 31 8 33 9 2 0 0 -3 -3 -9z m-4107
-45 c18 -38 15 -62 -8 -68 -12 -3 -20 0 -20 8 0 7 -7 18 -15 25 -29 24 -18 50
26 59 3 0 11 -10 17 -24z m4056 -1 c21 -21 21 -40 0 -23 -10 8 -29 19 -43 26
l-26 11 27 1 c15 1 34 -6 42 -15z m-2974 -64 c0 -5 -4 -10 -10 -10 -5 0 -10 5
-10 10 0 6 5 10 10 10 6 0 10 -4 10 -10z m3934 -142 c20 -29 20 -50 -1 -96 -9
-20 -15 -40 -14 -45 0 -4 -10 -5 -24 -1 -14 3 -31 2 -38 -4 -6 -6 -29 -13 -50
-17 -46 -9 -66 -36 -75 -102 -6 -42 -10 -48 -39 -56 l-32 -10 20 -39 c21 -42
46 -58 58 -39 12 18 86 -61 89 -94 1 -14 9 -33 17 -41 8 -9 14 -23 14 -32 -1
-16 -2 -16 -6 0 -6 22 -33 32 -33 12 0 -12 -3 -13 -22 -1 -16 10 -49 14 -103
12 -126 -4 -129 -5 -135 -52 -9 -64 -60 -126 -60 -73 0 17 -5 19 -25 14 -20
-5 -27 -1 -36 20 -15 32 -25 33 -33 4 -7 -23 -7 -23 -17 -3 -5 11 -23 28 -40
37 -16 10 -32 25 -35 35 -3 10 -10 26 -15 36 -15 27 1 94 28 121 19 19 34 24
65 23 30 -1 44 4 56 20 27 33 58 44 132 45 54 0 67 3 63 14 -3 8 -9 14 -14 14
-5 0 -9 7 -9 15 0 8 -6 15 -12 16 -7 0 -3 4 10 9 16 7 22 18 22 40 0 38 45
101 66 93 10 -4 14 3 14 28 0 56 81 117 105 79 4 -6 18 0 37 15 36 31 52 31
72 3z m-5058 -13 c4 -8 12 -15 20 -15 8 0 14 -7 14 -16 0 -8 -4 -13 -8 -10 -5
3 -9 -15 -9 -39 0 -44 -12 -72 -20 -47 -3 6 -11 12 -19 12 -8 0 -14 5 -14 10
0 7 -6 7 -20 0 -16 -9 -20 -8 -20 4 0 9 -14 19 -32 24 -26 7 -32 13 -30 30 2
13 -2 22 -10 22 -21 1 23 30 45 30 11 0 25 -7 31 -15 7 -9 19 -12 34 -9 21 6
21 7 5 20 -17 12 -16 13 5 14 12 0 25 -7 28 -15z m3832 -54 c31 -19 53 -93 32
-106 -5 -3 -10 -18 -10 -32 0 -37 -21 -91 -38 -98 -8 -3 -31 14 -55 38 -23 24
-67 61 -97 83 -73 53 -81 58 -75 42 3 -7 31 -31 61 -53 31 -22 60 -50 65 -63
13 -33 11 -36 -7 -18 -8 9 -29 16 -45 16 -22 0 -29 5 -29 20 0 13 -7 20 -20
20 -11 0 -29 9 -40 20 -11 11 -25 20 -30 20 -6 0 -13 7 -16 15 -4 8 -14 15
-24 15 -27 0 -35 19 -17 37 17 17 35 21 159 31 48 4 90 11 94 15 10 10 76 9
92 -2z m-3791 -23 c-3 -8 -6 -5 -6 6 -1 11 2 17 5 13 3 -3 4 -12 1 -19z m6384
-34 c11 -14 10 -18 -6 -30 -10 -8 -24 -14 -31 -14 -16 0 -62 39 -47 40 6 0 19
-7 28 -16 12 -13 19 -14 28 -5 8 8 7 11 -5 11 -9 0 -18 7 -22 15 -8 21 37 20
55 -1z m-2964 -30 c-3 -3 -12 -4 -19 -1 -8 3 -5 6 6 6 11 1 17 -2 13 -5z m47
-10 c17 -6 22 -24 8 -24 -5 0 -17 7 -28 15 -19 15 -8 20 20 9z m881 -338 c14
-22 15 -27 2 -48 -20 -32 -29 -76 -17 -83 25 -16 6 -22 -26 -9 -20 8 -39 13
-42 10 -11 -12 -32 18 -32 46 0 24 6 32 30 41 17 6 30 18 30 27 0 17 19 40 32
40 4 0 15 -11 23 -24z m381 -134 c5 -4 16 -21 23 -38 11 -27 10 -37 -3 -63
-19 -36 -44 -51 -86 -51 -18 0 -44 -7 -60 -16 -18 -11 -34 -14 -46 -9 -18 8
-18 8 1 13 25 5 56 32 50 42 -3 4 2 13 11 20 8 7 13 19 10 26 -3 8 5 29 17 48
22 35 57 46 83 28z m-486 -37 c-8 -9 -8 -15 -2 -15 6 0 18 -7 27 -16 12 -12
13 -20 5 -29 -8 -10 -7 -16 7 -24 10 -6 14 -10 8 -10 -5 0 -28 15 -49 34 -38
34 -39 35 -21 55 21 23 44 28 25 5z m80 -5 c0 -5 -4 -10 -9 -10 -6 0 -13 5
-16 10 -3 6 1 10 9 10 9 0 16 -4 16 -10z m235 -80 c-20 -22 -95 -29 -95 -9 0
7 11 9 29 6 19 -4 33 -1 41 8 7 8 19 15 28 15 13 0 12 -3 -3 -20z m-218 -26
c-3 -3 -12 -4 -19 -1 -8 3 -5 6 6 6 11 1 17 -2 13 -5z m-2760 -150 c-3 -3 -12
-4 -19 -1 -8 3 -5 6 6 6 11 1 17 -2 13 -5z"/>
<path d="M6590 9571 c0 -6 5 -13 10 -16 6 -3 10 1 10 9 0 9 -4 16 -10 16 -5 0
-10 -4 -10 -9z"/>
<path d="M5383 9360 c0 -25 2 -35 4 -22 2 12 2 32 0 45 -2 12 -4 2 -4 -23z"/>
<path d="M5430 9365 c0 -8 5 -15 10 -15 6 0 10 7 10 15 0 8 -4 15 -10 15 -5 0
-10 -7 -10 -15z"/>
<path d="M5370 9285 c-17 -20 -8 -27 19 -17 19 7 21 10 8 20 -11 10 -17 9 -27
-3z"/>
<path d="M5420 9289 c0 -6 8 -8 19 -4 11 3 22 1 26 -5 3 -5 11 -10 17 -10 7 0
6 6 -2 15 -14 17 -60 20 -60 4z"/>
<path d="M5554 9272 c-8 -5 -6 -13 6 -25 17 -18 18 -17 16 7 -1 28 -4 30 -22
18z"/>
<path d="M5796 9202 c-3 -6 -16 -8 -28 -4 -14 3 -19 2 -14 -6 9 -15 43 -16 51
-1 4 6 5 13 2 15 -3 3 -8 1 -11 -4z"/>
<path d="M4966 9110 c8 -52 23 -78 35 -59 7 12 -15 76 -32 94 -7 6 -8 -6 -3
-35z"/>
<path d="M4630 9070 c0 -5 7 -10 16 -10 8 0 12 5 9 10 -3 6 -10 10 -16 10 -5
0 -9 -4 -9 -10z"/>
<path d="M4901 9053 c-1 -17 4 -35 9 -38 11 -7 11 9 0 45 -8 24 -8 24 -9 -7z"/>
<path d="M5026 9042 c-4 -13 -5 -26 -2 -29 10 -11 18 4 14 29 l-4 23 -8 -23z"/>
<path d="M4955 9040 c-3 -5 -1 -18 4 -27 9 -16 10 -14 11 10 0 28 -5 34 -15
17z"/>
<path d="M4740 9036 c0 -3 9 -10 20 -16 11 -6 20 -8 20 -6 0 3 -9 10 -20 16
-11 6 -20 8 -20 6z"/>
<path d="M4880 9000 c0 -5 5 -10 11 -10 5 0 7 5 4 10 -3 6 -8 10 -11 10 -2 0
-4 -4 -4 -10z"/>
<path d="M4813 8976 c12 -12 25 -21 28 -19 4 1 14 -6 24 -17 10 -11 25 -20 33
-20 26 0 -51 75 -80 77 l-26 2 21 -23z"/>
<path d="M4998 8883 c-10 -2 -18 -8 -18 -13 0 -12 40 -8 70 7 l25 13 -30 -1
c-16 -1 -38 -3 -47 -6z"/>
<path d="M5410 8860 c0 -5 6 -10 14 -10 8 0 18 5 21 10 3 6 -3 10 -14 10 -12
0 -21 -4 -21 -10z"/>
<path d="M4760 8790 c0 -5 5 -10 11 -10 5 0 7 5 4 10 -3 6 -8 10 -11 10 -2 0
-4 -4 -4 -10z"/>
<path d="M4013 8875 c-17 -19 -16 -35 1 -35 8 0 14 10 14 25 0 14 -1 25 -2 25
0 -1 -7 -7 -13 -15z"/>
<path d="M3493 8093 c-7 -2 -13 -12 -12 -21 0 -11 2 -12 6 -4 2 6 13 12 24 12
10 0 19 5 19 10 0 10 -16 12 -37 3z"/>
<path d="M7490 8216 c0 -8 4 -17 9 -20 5 -4 7 3 4 14 -6 23 -13 26 -13 6z"/>
<path d="M8663 5160 c3 -12 -1 -23 -10 -28 -34 -20 32 -197 79 -210 11 -3 17
-10 14 -18 -7 -17 6 -18 22 -2 8 8 12 8 12 1 0 -6 9 -13 20 -16 20 -5 20 -5 0
22 -10 15 -26 33 -34 40 -8 7 -18 26 -21 42 -4 16 -16 38 -26 48 -12 11 -24
43 -31 80 -6 33 -16 61 -21 61 -5 0 -7 -9 -4 -20z"/>
<path d="M2836 8261 c-4 -7 -5 -15 -2 -18 9 -9 19 4 14 18 -4 11 -6 11 -12 0z"/>
<path d="M5820 7103 c1 -19 19 -35 36 -31 15 3 14 6 -9 21 -15 10 -27 14 -27
10z"/>
<path d="M5026 7003 c-18 -102 -18 -112 -2 -135 10 -13 16 -43 16 -74 0 -42 5
-58 30 -89 17 -21 30 -41 30 -46 0 -17 42 -20 60 -4 17 16 19 15 29 -4 6 -11
14 -40 17 -65 l7 -45 36 20 c57 30 91 20 91 -28 0 -28 4 -28 41 -2 23 16 33
18 44 9 18 -15 29 5 45 85 7 33 15 65 17 72 3 8 -4 13 -20 13 -37 0 -51 23
-40 67 7 31 5 41 -11 57 -10 10 -31 20 -45 22 -14 1 -27 8 -29 13 -2 6 -10 11
-18 11 -8 0 -14 5 -14 10 0 6 -4 10 -10 10 -5 0 -10 -9 -10 -20 0 -12 -10 -25
-25 -32 -21 -9 -28 -8 -45 7 -11 10 -20 24 -20 32 0 7 -6 13 -14 13 -7 0 -19
7 -26 15 -7 8 -20 15 -29 15 -20 0 -61 40 -61 59 0 6 -8 21 -19 32 -19 20 -19
20 -25 -18z m130 -114 c19 -22 19 -22 -1 -11 -11 6 -27 16 -35 22 -13 8 -13
10 1 10 9 0 24 -10 35 -21z"/>
<path d="M5585 7030 c-3 -5 -1 -10 4 -10 6 0 11 5 11 10 0 6 -2 10 -4 10 -3 0
-8 -4 -11 -10z"/>
<path d="M4942 6515 c12 -25 25 -45 29 -45 4 0 -4 20 -18 45 -13 25 -27 45
-29 45 -2 0 6 -20 18 -45z"/>
<path d="M6223 6458 c-44 -21 -39 -65 6 -53 14 4 46 9 71 11 47 5 66 20 48 41
-13 16 -94 16 -125 1z"/>
<path d="M4985 6450 c10 -16 65 -52 65 -42 0 6 -16 19 -36 31 -19 12 -33 17
-29 11z"/>
<path d="M6505 6444 c-6 -9 -37 -30 -69 -47 -59 -32 -87 -60 -73 -73 3 -4 13
-1 22 6 9 7 18 10 22 7 9 -10 60 20 67 40 6 14 9 15 16 4 6 -10 12 -2 20 28
12 46 10 59 -5 35z m-55 -84 c-20 -13 -33 -13 -25 0 3 6 14 10 23 10 15 0 15
-2 2 -10z"/>
<path d="M6295 6137 c-8 -4 -15 -6 -15 -3 0 2 -17 -4 -37 -14 -24 -11 -42 -15
-47 -9 -17 16 -98 9 -196 -16 -110 -28 -163 -31 -204 -10 -30 16 -47 12 -29
-6 20 -20 126 -40 236 -44 154 -5 211 -16 243 -46 55 -52 55 -91 -3 -115 -26
-11 -55 -13 -119 -8 -61 5 -84 4 -84 -5 0 -6 12 -17 28 -24 15 -6 30 -16 34
-21 4 -6 11 -6 20 1 7 6 22 7 33 3 19 -7 19 -7 0 -17 -18 -10 -16 -12 15 -21
32 -8 39 -6 81 30 26 21 52 38 58 38 6 0 11 7 11 15 0 19 46 111 59 120 14 8
2 104 -17 137 -15 26 -38 32 -67 15z"/>
<path d="M4038 7943 c6 -2 18 -2 25 0 6 3 1 5 -13 5 -14 0 -19 -2 -12 -5z"/>
<path d="M3725 7910 c3 -5 11 -10 16 -10 6 0 7 5 4 10 -3 6 -11 10 -16 10 -6
0 -7 -4 -4 -10z"/>
<path d="M5700 7149 c0 -5 5 -7 10 -4 6 3 10 8 10 11 0 2 -4 4 -10 4 -5 0 -10
-5 -10 -11z"/>
<path d="M1415 6690 c-3 -6 1 -7 9 -4 18 7 21 14 7 14 -6 0 -13 -4 -16 -10z"/>
<path d="M6600 6880 c0 -5 5 -10 10 -10 6 0 10 5 10 10 0 6 -4 10 -10 10 -5 0
-10 -4 -10 -10z"/>
<path d="M7546 6831 c-4 -7 -5 -15 -2 -18 9 -9 19 4 14 18 -4 11 -6 11 -12 0z"/>
<path d="M7590 6820 c-8 -5 -11 -12 -7 -16 4 -4 13 -2 19 4 15 15 7 24 -12 12z"/>
<path d="M7593 6153 c9 -2 25 -2 35 0 9 3 1 5 -18 5 -19 0 -27 -2 -17 -5z"/>
<path d="M4655 6100 c3 -5 8 -10 11 -10 2 0 4 5 4 10 0 6 -5 10 -11 10 -5 0
-7 -4 -4 -10z"/>
<path d="M4640 6069 c0 -5 5 -7 10 -4 6 3 10 8 10 11 0 2 -4 4 -10 4 -5 0 -10
-5 -10 -11z"/>
<path d="M4805 5080 c-3 -5 -1 -10 4 -10 6 0 11 5 11 10 0 6 -2 10 -4 10 -3 0
-8 -4 -11 -10z"/>
<path d="M4895 5060 c-3 -5 -2 -10 4 -10 5 0 13 5 16 10 3 6 2 10 -4 10 -5 0
-13 -4 -16 -10z"/>
<path d="M7143 5395 c-58 -18 -130 -61 -144 -86 -17 -33 -2 -34 34 -2 55 48
109 77 167 89 46 10 49 12 20 12 -19 1 -54 -5 -77 -13z"/>
<path d="M7103 5270 c-34 -14 -28 -21 7 -9 17 6 30 13 30 15 0 6 -12 4 -37 -6z"/>
<path d="M1671 5004 c0 -11 3 -14 6 -6 3 7 2 16 -1 19 -3 4 -6 -2 -5 -13z"/>
<path d="M1795 5010 c-3 -5 -1 -10 4 -10 6 0 11 5 11 10 0 6 -2 10 -4 10 -3 0
-8 -4 -11 -10z"/>
<path d="M1585 4940 c-7 -23 4 -47 39 -79 21 -20 26 -21 26 -8 0 11 7 16 20
14 24 -4 51 -27 31 -27 -22 0 -1 -18 29 -25 31 -7 109 21 110 39 0 5 6 14 14
20 8 6 18 28 22 49 5 32 4 36 -10 31 -8 -3 -25 -21 -37 -40 -26 -42 -57 -51
-100 -28 -23 11 -34 13 -37 5 -5 -16 -26 -14 -61 7 -40 22 -50 45 -15 32 37
-15 42 -12 15 10 -29 25 -38 25 -46 0z"/>
<path d="M965 4900 c3 -5 14 -10 23 -10 15 0 15 2 2 10 -20 13 -33 13 -25 0z"/>
<path d="M895 4870 c-3 -5 -2 -10 4 -10 5 0 13 5 16 10 3 6 2 10 -4 10 -5 0
-13 -4 -16 -10z"/>
<path d="M6387 3561 c-32 -35 -34 -47 -6 -56 16 -5 19 -12 15 -28 -21 -72 -28
-147 -24 -262 4 -116 7 -135 30 -181 31 -58 70 -91 156 -131 34 -15 62 -30 62
-33 0 -3 -13 -13 -29 -23 -44 -26 -81 -75 -81 -107 0 -42 20 -80 51 -96 41
-21 44 -17 11 11 -84 70 -18 182 113 193 63 5 94 -10 126 -61 18 -28 20 -29
14 -7 -4 14 -22 40 -41 58 -39 37 -40 39 -16 45 9 3 -2 5 -25 6 -64 2 -179 45
-230 87 -29 24 -55 58 -72 93 -24 53 -26 65 -25 201 0 163 8 190 64 228 28 19
45 23 85 20 104 -9 161 -88 159 -223 -1 -67 1 -74 9 -45 23 89 -16 224 -77
261 -55 34 -102 42 -157 26 -53 -16 -53 -16 -63 26 -8 34 -15 34 -49 -2z m30
-33 c-3 -7 -5 -2 -5 12 0 14 2 19 5 13 2 -7 2 -19 0 -25z m153 -608 c8 -5 11
-10 5 -10 -5 0 -17 5 -25 10 -8 5 -10 10 -5 10 6 0 17 -5 25 -10z"/>
<path d="M6711 3149 c-1 -44 24 -127 47 -155 26 -31 69 -51 135 -63 32 -6 64
-14 70 -18 8 -4 8 -1 -1 9 -7 9 -36 22 -65 28 -118 28 -163 79 -180 205 -4 28
-4 28 -6 -6z"/>
<path d="M7145 2770 c10 -11 20 -18 23 -15 7 6 -18 35 -31 35 -5 0 -2 -9 8
-20z"/>
<path d="M7120 2608 c-12 -22 -12 -22 6 -6 10 10 15 20 12 24 -4 3 -12 -5 -18
-18z"/>
<path d="M7399 2612 c17 -32 38 -45 44 -28 4 9 -4 21 -18 30 -32 21 -38 20
-26 -2z"/>
<path d="M6688 2603 c7 -3 16 -2 19 1 4 3 -2 6 -13 5 -11 0 -14 -3 -6 -6z"/>
<path d="M7000 2606 c0 -2 8 -10 18 -17 15 -13 16 -12 3 4 -13 16 -21 21 -21
13z"/>
<path d="M7087 2550 c-9 -11 -13 -20 -8 -20 11 0 35 29 29 35 -2 2 -12 -4 -21
-15z"/>
<path d="M3523 4843 c15 -2 39 -2 55 0 15 2 2 4 -28 4 -30 0 -43 -2 -27 -4z"/>
<path d="M8304 4538 l-19 -23 23 19 c12 11 22 21 22 23 0 8 -8 2 -26 -19z"/>
<path d="M2315 4640 c3 -5 11 -10 16 -10 6 0 7 5 4 10 -3 6 -11 10 -16 10 -6
0 -7 -4 -4 -10z"/>
<path d="M1925 4390 c-3 -6 1 -7 9 -4 18 7 21 14 7 14 -6 0 -13 -4 -16 -10z"/>
<path d="M4251 4074 c0 -11 3 -14 6 -6 3 7 2 16 -1 19 -3 4 -6 -2 -5 -13z"/>
<path d="M4170 4003 c0 -5 5 -15 10 -23 8 -12 10 -11 10 8 0 12 -4 22 -10 22
-5 0 -10 -3 -10 -7z"/>
<path d="M2811 3657 c-6 -8 -8 -17 -4 -20 7 -8 33 11 33 24 0 13 -16 11 -29
-4z"/>
<path d="M7835 3690 c-3 -6 1 -7 9 -4 18 7 21 14 7 14 -6 0 -13 -4 -16 -10z"/>
<path d="M7878 3683 c7 -3 16 -2 19 1 4 3 -2 6 -13 5 -11 0 -14 -3 -6 -6z"/>
<path d="M3958 2913 c7 -3 16 -2 19 1 4 3 -2 6 -13 5 -11 0 -14 -3 -6 -6z"/>
<path d="M5080 2401 c0 -5 7 -12 16 -15 14 -5 15 -4 4 9 -14 17 -20 19 -20 6z"/>
<path d="M1690 2264 c0 -8 5 -12 10 -9 6 3 10 10 10 16 0 5 -4 9 -10 9 -5 0
-10 -7 -10 -16z"/>
<path d="M1618 2228 c-16 -5 -28 -16 -28 -23 0 -11 9 -9 38 7 20 12 39 23 41
25 9 7 -25 1 -51 -9z"/>
<path d="M4270 1871 c0 -5 5 -13 10 -16 6 -3 10 -2 10 4 0 5 -4 13 -10 16 -5
3 -10 2 -10 -4z"/>
<path d="M4412 1770 c7 -10 14 -18 15 -16 6 6 -9 36 -18 36 -5 0 -4 -9 3 -20z"/>
<path d="M3500 2050 l-25 -8 25 -1 c14 0 32 4 40 9 13 9 13 10 0 9 -8 -1 -26
-5 -40 -9z"/>
<path d="M3414 2011 c-38 -23 -78 -73 -99 -124 -25 -59 -17 -66 13 -10 32 61
87 124 122 140 14 6 18 12 10 12 -8 1 -29 -8 -46 -18z"/>
<path d="M3410 1969 c0 -5 5 -7 10 -4 6 3 10 8 10 11 0 2 -4 4 -10 4 -5 0 -10
-5 -10 -11z"/>
<path d="M3280 1799 c-22 -40 12 -65 50 -38 12 8 9 10 -12 6 -25 -4 -26 -2
-21 24 6 34 -2 38 -17 8z"/>
<path d="M3408 1596 c-64 -15 -72 -27 -12 -20 52 7 118 34 79 32 -11 0 -41 -5
-67 -12z"/>
<path d="M3300 1574 c0 -9 5 -14 12 -12 18 6 21 28 4 28 -9 0 -16 -7 -16 -16z"/>
<path d="M3410 1480 c0 -5 5 -10 11 -10 5 0 7 5 4 10 -3 6 -8 10 -11 10 -2 0
-4 -4 -4 -10z"/>
<path d="M7728 1703 c-10 -3 -18 -9 -18 -14 0 -12 37 -12 45 0 7 12 -5 19 -27
14z"/>
<path d="M7775 1628 c-9 -28 0 -64 17 -65 23 -2 33 16 19 30 -6 6 -11 19 -11
29 0 20 -18 24 -25 6z"/>
<path d="M5895 1910 c3 -5 11 -10 16 -10 6 0 7 5 4 10 -3 6 -11 10 -16 10 -6
0 -7 -4 -4 -10z"/>
<path d="M1505 1742 c0 -41 2 -46 12 -33 16 21 16 43 1 64 -11 15 -13 10 -13
-31z"/>
<path d="M6456 1025 c-18 -14 -18 -15 9 -25 33 -13 39 -9 30 19 -7 25 -13 25
-39 6z"/>
<path d="M6291 914 c0 -11 3 -14 6 -6 3 7 2 16 -1 19 -3 4 -6 -2 -5 -13z"/>
<path d="M4040 9954 c0 -8 5 -12 10 -9 6 3 10 10 10 16 0 5 -4 9 -10 9 -5 0
-10 -7 -10 -16z"/>
<path d="M4095 9930 c-3 -5 -1 -10 4 -10 6 0 11 5 11 10 0 6 -2 10 -4 10 -3 0
-8 -4 -11 -10z"/>
<path d="M3070 9801 c0 -10 -9 -29 -19 -43 -19 -24 -19 -24 -1 -36 26 -16 55
12 45 42 -4 12 -7 29 -6 39 0 9 -4 17 -10 17 -5 0 -9 -8 -9 -19z"/>
<path d="M2950 9750 c0 -5 -7 -7 -15 -4 -9 4 -15 0 -15 -9 0 -8 7 -18 16 -21
9 -3 14 -15 12 -28 -2 -15 3 -24 15 -26 15 -3 17 2 13 35 -2 21 -5 44 -5 51
-1 14 -21 17 -21 2z"/>
<path d="M2441 9584 c0 -11 3 -14 6 -6 3 7 2 16 -1 19 -3 4 -6 -2 -5 -13z"/>
<path d="M2406 9564 c-9 -22 3 -32 14 -14 12 19 12 30 1 30 -5 0 -12 -7 -15
-16z"/>
<path d="M776 2370 c-13 -23 -15 -35 -7 -43 7 -7 13 -2 21 18 17 44 8 61 -14
25z"/>
<path d="M9566 2132 c-3 -5 -20 -9 -38 -10 -18 0 -38 -8 -44 -17 -8 -11 -13
-12 -16 -4 -3 8 -25 2 -70 -19 -78 -36 -138 -104 -138 -157 0 -21 -8 -39 -25
-55 -14 -13 -25 -27 -25 -32 0 -17 70 -38 128 -38 52 0 61 3 87 30 16 17 33
30 38 30 5 0 22 14 40 31 21 21 31 42 33 67 4 55 21 138 34 161 10 20 7 30 -4
13z"/>
</g>
</svg>
